<svg width="66" height="66" viewBox="0 0 66 66" fill="none" xmlns="http://www.w3.org/2000/svg">
<g clip-path="url(#clip0_188_5785)">
<path d="M30.8438 55.1711C31.1825 55.1711 31.5154 55.0332 31.7551 54.7934C31.9949 54.5537 32.1328 54.221 32.1328 53.8821C32.1328 53.5432 31.9949 53.2105 31.7551 52.9707C31.5154 52.7309 31.1825 52.593 30.8438 52.593C30.5047 52.593 30.172 52.7309 29.9324 52.9707C29.6927 53.2105 29.5547 53.5432 29.5547 53.8821C29.5547 54.221 29.6926 54.5538 29.9324 54.7934C30.1721 55.0331 30.5047 55.1711 30.8438 55.1711Z" fill="black"/>
<path d="M64.7102 63.4214H37.6732C38.4844 62.3434 38.9657 61.0039 38.9657 59.5543V34.7777H47.6029C51.5044 34.7777 54.6786 31.6034 54.6786 27.7014V10.6623C54.6786 9.9507 54.1016 9.3732 53.3895 9.3732H51.7134C50.1523 9.3732 48.7193 9.93162 47.6029 10.8582C47.339 10.5434 47.0299 10.2695 46.6855 10.0454C45.76 9.44217 44.6553 9.23527 43.5741 9.46279C43.5549 9.46687 43.5358 9.47142 43.5168 9.47645L25.2186 14.2132C25.5707 13.3512 25.7516 12.4288 25.751 11.4976V9.82734C25.751 9.78712 25.7489 9.7478 25.7479 9.70745L26.8995 8.55594C28.8542 6.60121 28.8542 3.42033 26.8995 1.46561C24.9448 -0.488604 21.7644 -0.489119 19.8092 1.46561L18.6575 2.61725C18.6178 2.61674 18.578 2.61467 18.5377 2.61467C14.5603 2.61467 11.3246 5.85046 11.3246 9.82785V11.4976C11.3246 15.1306 14.0245 18.1433 17.5232 18.6383L17.4693 18.6927C15.5442 20.6173 15.5442 23.7492 17.4693 25.6737L28.5425 36.747C29.2047 37.8102 29.5553 39.0379 29.5547 40.2905V49.0999C29.5547 49.8113 30.1317 50.3889 30.8438 50.3889C31.5557 50.3889 32.1328 49.8113 32.1328 49.0999V40.2905C32.1334 38.7797 31.7647 37.2917 31.0588 35.956L35.9557 27.9452H46.5571C47.2691 27.9452 47.8462 27.3681 47.8462 26.6561V15.819C47.8462 13.6865 49.5809 11.9518 51.7134 11.9518H52.1006V27.7019C52.1006 30.1819 50.083 32.2001 47.6031 32.2001H37.0564C36.3443 32.2001 35.7673 32.7771 35.7673 33.4891C35.7673 33.9559 36.0161 34.3633 36.3876 34.5899V59.5543C36.3876 61.6868 34.6529 63.4214 32.5204 63.4214H32.1332V58.6519C32.1332 57.94 31.5557 57.3629 30.8442 57.3629C30.1322 57.3629 29.5547 57.94 29.5547 58.6519V63.4214H1.28955C0.577599 63.4214 0.000488281 63.9989 0.000488281 64.7105C0.000488281 65.4224 0.577599 65.9996 1.28955 65.9996H64.7096C65.4217 65.9996 65.9987 65.4224 65.9987 64.7105C65.9987 63.9989 65.4217 63.4214 64.7102 63.4214ZM21.6324 3.28898C22.5822 2.3392 24.127 2.3392 25.0768 3.28898C26.0259 4.23811 26.0259 5.78343 25.0768 6.73308L25.06 6.74984C24.3429 5.23933 23.1264 4.02268 21.6159 3.30548L21.6324 3.28898ZM13.9027 11.4977V9.82721C13.9027 7.27178 15.9818 5.19214 18.5378 5.19214C21.0937 5.19214 23.1728 7.27178 23.1728 9.82721V11.4974C23.1728 14.0534 21.0936 16.1325 18.5378 16.1325C15.9818 16.1325 13.9027 14.0534 13.9027 11.4974V11.4977ZM29.312 33.8703L19.2921 23.8505C18.3725 22.931 18.3725 21.4349 19.2921 20.5154L21.6813 18.1262C22.0566 17.7488 22.5496 17.5109 23.0786 17.452C23.2362 17.4343 23.3892 17.3875 23.5298 17.3141L44.1301 11.9808C44.5293 11.9028 44.9357 11.9824 45.2776 12.205C45.5746 12.3979 45.7964 12.6869 45.906 13.0237C45.6166 13.6233 45.4227 14.2645 45.3315 14.924L28.245 18.5378C28.0178 18.5856 27.8078 18.694 27.6371 18.8514C27.4665 19.0088 27.3415 19.2094 27.2754 19.432C27.2093 19.6545 27.2046 19.8908 27.2617 20.1159C27.3188 20.3409 27.4356 20.5463 27.5999 20.7105L33.6555 26.7656L29.312 33.8703ZM35.9028 25.3671L31.104 20.5684L45.2681 17.5728V25.3665H35.9028V25.3671Z" fill="black"/>
</g>
<defs>
<clipPath id="clip0_188_5785">
<rect width="66" height="66" fill="white"/>
</clipPath>
</defs>
</svg>
