<svg width="66" height="66" viewBox="0 0 66 66" fill="none" xmlns="http://www.w3.org/2000/svg">
<g clip-path="url(#clip0_188_5737)">
<path d="M65.0332 41.0083C65.0332 41.073 65.0331 41.1377 65.0327 41.2026C64.9998 46.7302 63.567 51.926 61.0706 56.4533C60.8958 56.7702 60.4954 56.8828 60.1821 56.702L56.0948 54.3422C55.9493 54.2584 55.8423 54.121 55.7968 53.9593C55.7513 53.7976 55.771 53.6245 55.8515 53.4771C57.8418 49.8373 58.9878 45.6699 59.026 41.2383C59.0267 41.1616 59.0269 41.085 59.0269 41.0086M65.0332 41.0083H59.0269C59.0266 36.2817 57.7503 31.837 55.5242 28.004M65.0332 41.0083C65.0329 35.1848 63.4653 29.7142 60.7297 24.9987L55.5242 28.004M49.0102 13.2777C53.8633 16.0936 57.9147 20.1464 60.7295 24.9985M49.0102 13.2777C44.2968 10.543 38.8273 8.9751 33 8.9751M49.0102 13.2777L46.0051 18.4828C42.191 16.2671 37.7684 14.9917 33.0577 14.9815H33M55.5242 28.004C53.2365 24.065 49.9456 20.772 46.0052 18.4827M0.966797 41.0083C0.966797 41.073 0.966926 41.1377 0.967313 41.2026C1.00018 46.7302 2.43298 51.926 4.92938 56.4533C5.10417 56.7702 5.50455 56.8828 5.81793 56.702L9.90516 54.3422C10.0507 54.2584 10.1577 54.121 10.2032 53.9593C10.2487 53.7976 10.229 53.6245 10.1485 53.4771C8.15822 49.8373 7.01224 45.6699 6.97396 41.2383C6.97333 41.1617 6.97303 41.0851 6.97305 41.0086M16.9897 13.2777C12.1365 16.0936 8.08513 20.1464 5.27033 24.9985M10.4758 28.004C12.7635 24.065 16.0544 20.772 19.9948 18.4827M33.5903 39.1359L28.8683 46.6913C28.7538 46.8746 28.8854 47.1121 29.1016 47.1121H30.9345C31.1909 47.1121 31.4369 47.214 31.6182 47.3953C31.7995 47.5766 31.9013 47.8225 31.9013 48.0789V52.7451C31.9013 53.0215 32.2632 53.1252 32.4097 52.8909L37.1318 45.3357C37.2463 45.1524 37.1146 44.9148 36.8985 44.9148H35.0656C34.8092 44.9148 34.5633 44.8129 34.382 44.6316C34.2007 44.4503 34.0988 44.2044 34.0988 43.948V39.2819C34.0987 39.0054 33.7367 38.9016 33.5903 39.1359Z" stroke="black" stroke-width="2" stroke-miterlimit="10" stroke-linecap="round" stroke-linejoin="round"/>
<path d="M22.8314 50.246C22.2884 48.943 21.9886 47.5133 21.9886 46.0135C21.9886 39.9321 26.9186 35.002 33 35.002C39.0814 35.002 44.0114 39.9321 44.0114 46.0135C44.0114 52.0949 39.0814 57.0249 33 57.0249C30.0564 57.0249 27.3825 55.8699 25.4069 53.9883M21.9883 10.9292C20.2574 11.5661 18.5849 12.3519 16.9897 13.2777L19.9948 18.4827C23.8089 16.2669 28.2315 14.9915 32.9421 14.9814H32.9999V8.9751C30.7221 8.9751 28.499 9.21461 26.3544 9.66977M14.9814 55.0229H18.9854M51.0186 55.0229H47.0146M49.0166 53.0207V57.0249M37.7664 33.5796L34.4334 35.0946M0.966797 41.0083H6.97305C6.97344 36.2817 8.24974 31.837 10.4758 28.004L5.27033 24.9987C2.53468 29.7142 0.967055 35.1848 0.966797 41.0083Z" stroke="black" stroke-width="2" stroke-miterlimit="10" stroke-linecap="round" stroke-linejoin="round"/>
<path d="M43.4259 42.4612L49.277 29.5888C49.5234 29.0466 48.9657 28.4888 48.4235 28.7353L41.7754 31.7571" stroke="black" stroke-width="2" stroke-miterlimit="10" stroke-linecap="round" stroke-linejoin="round"/>
</g>
<defs>
<clipPath id="clip0_188_5737">
<rect width="66" height="66" fill="white"/>
</clipPath>
</defs>
</svg>
