<svg width="70" height="70" viewBox="0 0 70 70" fill="none" xmlns="http://www.w3.org/2000/svg">
<g clip-path="url(#clip0_188_5838)">
<path d="M24.2198 28.3436H21.5937C21.9492 28.9513 22.3171 29.5517 22.6972 30.1442C23.1546 29.5034 23.6638 28.9011 24.2198 28.3436ZM14.0253 28.5225L14.017 28.5052C13.9888 28.452 13.9621 28.398 13.9367 28.3434H10.7017C10.8184 29.2441 11.4803 30.0191 12.4178 30.2317C12.4646 30.2381 13.64 30.5103 15.2556 30.7435C14.8374 30.0134 14.4299 29.2773 14.0331 28.5353L14.0253 28.5225ZM27.8254 21.8094V24.7924H28.7966C28.2574 23.7497 27.9764 22.5929 27.9772 21.4191C27.9772 19.0048 29.1423 16.8576 30.9398 15.51H29.9784C29.8402 15.51 29.7056 15.5243 29.5744 15.5493C29.1354 15.4753 28.6843 15.5352 28.2798 15.7212C28.0892 15.8101 26.6171 16.5088 25.0035 18.2531C23.6824 19.6748 22.2913 21.827 21.514 24.7926H26.1769C26.6397 23.52 27.2353 22.5516 27.8254 21.8094ZM56.7031 28.5052L56.6767 28.5545C56.4733 28.9351 56.034 29.7469 55.4642 30.7435C57.0798 30.5103 58.2552 30.2384 58.3026 30.2317C59.2398 30.0189 59.9017 29.2441 60.0185 28.3434H56.7837C56.758 28.398 56.7316 28.452 56.7031 28.5052ZM49.1264 28.3436H46.5003C47.0565 28.9007 47.5658 29.5028 48.0229 30.1437C48.4011 29.5501 48.769 28.95 49.1264 28.3436ZM42.7435 21.4191C42.7435 22.6341 42.4467 23.7805 41.9244 24.7924H42.8953V21.8091C43.4848 22.5533 44.0807 23.5206 44.5435 24.7924H49.2055C48.4282 21.8264 47.0372 19.6742 45.7166 18.2528C44.1027 16.5085 42.6303 15.8098 42.4403 15.7209C42.0358 15.5351 41.5847 15.4751 41.1457 15.5488C41.0127 15.5232 40.8777 15.5101 40.7423 15.5098H39.7811C41.5784 16.8576 42.7435 19.0048 42.7435 21.4191ZM25.1079 63.6021C24.921 65.4958 26.3045 67.1815 28.197 67.3685C30.0904 67.5554 31.777 66.173 31.964 64.2794L32.8446 55.3609H25.9217L25.1079 63.6021ZM38.7567 64.2791C38.9437 66.1728 40.6303 67.5552 42.5236 67.3682C44.4162 67.1813 45.7997 65.4955 45.6127 63.6019L44.799 55.3604H37.8761L38.7567 64.2791Z" fill="white" stroke="black" stroke-width="1.5"/>
<path d="M35.3602 13.9224C38.8222 13.9224 41.6287 11.1159 41.6287 7.65395C41.6287 4.19198 38.8222 1.3855 35.3602 1.3855C31.8983 1.3855 29.0918 4.19198 29.0918 7.65395C29.0918 11.1159 31.8983 13.9224 35.3602 13.9224Z" fill="white" stroke="black" stroke-width="1.5"/>
<path d="M36.5094 50.0933L36.5089 50.0932C36.2108 50.0518 35.9188 49.9743 35.6395 49.8624L35.3606 49.7507L35.0818 49.8623C34.8021 49.9743 34.5098 50.0519 34.2114 50.0932L34.2104 50.0933L24.981 51.3829L24.4178 51.4616L24.3416 52.0251L24.0546 54.1458L23.9395 54.9964H24.7979H45.9222H46.7806L46.6655 54.1458L46.3785 52.0251L46.3023 51.4616L45.7391 51.3829L36.5094 50.0933Z" fill="white" stroke="black" stroke-width="1.5"/>
<path d="M3.05466 30.1894C3.05466 30.2855 3.09282 30.3776 3.16074 30.4455C3.22866 30.5134 3.32078 30.5516 3.41683 30.5516H4.50337C4.54125 30.5516 4.5758 30.5407 4.61007 30.5298V32.1396C4.61007 32.2874 4.66877 32.4291 4.77327 32.5336C4.87776 32.6381 5.01949 32.6968 5.16726 32.6968H6.83885C6.98663 32.6968 7.12835 32.6381 7.23285 32.5336C7.33734 32.4291 7.39604 32.2874 7.39604 32.1396V27.2293H14.7644C14.7975 27.4862 14.8739 27.7416 15.002 27.9846C15.0162 28.0105 16.1939 30.2446 17.6161 32.533C18.3304 33.6805 19.0974 34.8364 19.8675 35.7914C20.2578 36.2712 20.6409 36.7016 21.0986 37.0917C21.3309 37.2864 21.5825 37.4747 21.9146 37.6488C22.2456 37.8157 22.6771 37.9918 23.2828 37.9977L23.3338 37.9982C23.8885 37.9982 24.5663 37.755 25.0037 37.3555C25.4651 36.9493 25.6904 36.4985 25.8278 36.1227C26.4003 34.5325 27.1194 33.4256 27.8256 32.6363V43.7031C27.8256 43.7106 27.8267 43.7178 27.8267 43.7253L20.5868 44.7367C19.076 44.9481 17.8816 46.1475 17.6777 47.6589L15.5411 63.4462C15.2882 65.3142 16.5978 67.0331 18.4661 67.2861C18.6213 67.307 18.7754 67.3173 18.9278 67.3173C20.6091 67.3173 22.074 66.0739 22.3052 64.3619L24.0941 51.1391L34.1612 49.7327C34.5831 49.6733 34.99 49.5351 35.3608 49.3254C35.7316 49.5353 36.1386 49.6735 36.5605 49.7327L46.6268 51.1391L48.4159 64.3619C48.6477 66.0739 50.1123 67.3176 51.7936 67.3176C51.946 67.3176 52.1001 67.3072 52.2553 67.2864C54.1233 67.0337 55.4324 65.3144 55.1803 63.4464L53.044 47.6597C52.8395 46.148 51.6449 44.9481 50.1346 44.7372L42.895 43.7259C42.895 43.7181 42.8961 43.7109 42.8961 43.7031V32.6377C43.602 33.427 44.3214 34.5316 44.8933 36.1207C45.029 36.4971 45.2538 36.9476 45.7149 37.3538C46.152 37.7542 46.8307 37.9979 47.386 37.9979C47.4035 37.9979 47.4205 37.9977 47.4375 37.9971C48.0437 37.9918 48.4747 37.8157 48.8057 37.6483C49.4183 37.3198 49.7955 36.954 50.1859 36.5556C50.8475 35.8589 51.4655 35.0186 52.0873 34.1051C53.9283 31.3826 55.6979 28.0202 55.7188 27.9843C55.847 27.7416 55.923 27.4862 55.9562 27.229H63.3256V32.1393C63.3256 32.2871 63.3843 32.4288 63.4888 32.5333C63.5933 32.6378 63.7351 32.6965 63.8828 32.6965H65.5544C65.7022 32.6965 65.8439 32.6378 65.9484 32.5333C66.0529 32.4288 66.1116 32.2871 66.1116 32.1393V30.5298C66.1459 30.5404 66.1804 30.5513 66.2183 30.5513H67.3048C67.4009 30.5513 67.493 30.5131 67.561 30.4452C67.6289 30.3773 67.667 30.2852 67.667 30.1891V27.2293H69.7214V25.906H67.667V22.9459C67.667 22.8498 67.6289 22.7577 67.561 22.6898C67.493 22.6218 67.4009 22.5837 67.3048 22.5837H66.2183C66.1804 22.5837 66.1459 22.5945 66.1116 22.6054V20.9957C66.1116 20.8479 66.0529 20.7062 65.9484 20.6017C65.8439 20.4972 65.7022 20.4385 65.5544 20.4385H63.8828C63.7351 20.4385 63.5933 20.4972 63.4888 20.6017C63.3843 20.7062 63.3256 20.8479 63.3256 20.9957V25.906H55.7196C55.511 25.5079 55.1863 25.1827 54.7886 24.9735C54.5299 24.8367 54.2467 24.7523 53.9554 24.725C53.664 24.6977 53.3701 24.728 53.0905 24.8143C52.8108 24.9006 52.551 25.0412 52.3257 25.228C52.1004 25.4148 51.9141 25.6441 51.7775 25.9029L51.7758 25.906H40.572C39.3091 27.3708 37.442 28.3011 35.3606 28.3011C33.2794 28.3011 31.4126 27.3708 30.1497 25.906H18.9453L18.9439 25.9032C18.7544 25.5444 18.4706 25.2442 18.123 25.0349C17.7755 24.8256 17.3774 24.7151 16.9716 24.7154C16.5659 24.7157 16.168 24.8268 15.8207 25.0367C15.4735 25.2465 15.1901 25.5472 15.0012 25.9062H7.39604V20.9957C7.39604 20.8479 7.33734 20.7062 7.23285 20.6017C7.12835 20.4972 6.98663 20.4385 6.83885 20.4385H5.16726C5.01949 20.4385 4.87776 20.4972 4.77327 20.6017C4.66877 20.7062 4.61007 20.8479 4.61007 20.9957V22.6051C4.57584 22.5924 4.53984 22.5852 4.50337 22.5837H3.41683C3.32078 22.5837 3.22866 22.6218 3.16074 22.6898C3.09282 22.7577 3.05466 22.8498 3.05466 22.9459V25.906H1V27.2293H3.05466V30.1894ZM51.0509 27.2293C50.4862 28.2389 49.659 29.6712 48.8177 30.9667C48.5527 31.378 48.2782 31.7831 47.9944 32.1816C46.8979 30.2081 45.5609 28.8466 44.3621 27.9684C43.997 27.6991 43.6159 27.4522 43.2209 27.229L51.0509 27.2293ZM27.4985 27.2293C27.1038 27.4527 26.7229 27.6997 26.358 27.969C25.1586 28.8466 23.8213 30.2081 22.725 32.1822C22.0394 31.2202 21.2607 29.9818 20.6186 28.885C20.2959 28.3367 19.9793 27.7849 19.6688 27.2296L27.4985 27.2293Z" fill="white" stroke="black" stroke-width="1.5"/>
<path d="M35.3602 28.4378C39.2364 28.4378 42.3787 25.2955 42.3787 21.4193C42.3787 17.5431 39.2364 14.4009 35.3602 14.4009C31.4841 14.4009 28.3418 17.5431 28.3418 21.4193C28.3418 25.2955 31.4841 28.4378 35.3602 28.4378Z" fill="white" stroke="black" stroke-width="1.5"/>
</g>
<defs>
<clipPath id="clip0_188_5838">
<rect width="70" height="70" fill="white"/>
</clipPath>
</defs>
</svg>
