<svg width="1008" height="380" viewBox="0 0 1008 380" fill="none" xmlns="http://www.w3.org/2000/svg">
<g opacity="0.2">
<g opacity="0.6">
<path d="M547.101 292.577L540.553 299.094L552.449 310.99H383.844V320.243H552.449L540.553 332.139L547.101 338.686L570.155 315.632L547.101 292.577Z" fill="#08BCC2"/>
</g>
<g opacity="0.6">
<path d="M417.288 337.826L413.384 341.76L420.485 348.861H319.537V354.425H420.485L413.384 361.526L417.288 365.46L431.09 351.628L417.288 337.826Z" fill="#08BCC2"/>
</g>
<g opacity="0.6">
<path d="M37.688 28.311L33.5689 32.4301L41.0693 39.9305H-65.043V45.7403H41.0693L33.5689 53.2099L37.688 57.329L52.197 42.82L37.688 28.311Z" fill="#08BCC2"/>
</g>
<g opacity="0.6">
<path d="M634.707 159.875L614.911 179.641L650.846 215.575H141.156V243.579H650.846L614.911 279.513L634.707 299.309L704.394 229.592L634.707 159.875Z" fill="#08BCC2"/>
</g>
<path d="M328.205 188.248L303.46 213.024L348.432 257.995H-289.41V293.008H348.432L303.46 337.979L328.205 362.755L415.443 275.486L328.205 188.248Z" fill="#005196"/>
<g opacity="0.8">
<path d="M710.265 128.644L696.278 142.631L721.7 168.052H361.127V187.848H721.7L696.278 213.27L710.265 227.287L759.571 177.95L710.265 128.644Z" fill="#08BCC2"/>
</g>
<path d="M579.684 70.7004L558.566 91.8491L596.929 130.212H52.627V160.09H596.96L558.566 198.484L579.684 219.633L654.135 145.151L579.684 70.7004Z" fill="#005196"/>
<g opacity="0.2">
<path d="M126.74 331.493L120.131 338.102L132.119 350.09H-38.085V359.435H132.119L120.131 371.454L126.74 378.063L150.009 354.763L126.74 331.493Z" fill="#005196"/>
</g>
<g opacity="0.2">
<path d="M335.029 100.118L312.405 122.742L353.504 163.872H-229.561V195.871H353.534L312.405 237.001L335.029 259.625L414.798 179.856L335.029 100.118Z" fill="#005196"/>
</g>
<g opacity="0.6">
<path d="M277.885 340.223L274.289 343.82L280.836 350.367H188.096V355.439H280.836L274.289 361.987L277.885 365.583L290.581 352.919L277.885 340.223Z" fill="#005196"/>
</g>
<g opacity="0.6">
<path d="M570.523 34.428L567.419 37.5327L573.075 43.1579H493.029V47.5537H573.075L567.419 53.2098L570.523 56.3145L581.466 45.3712L570.523 34.428Z" fill="#005196"/>
</g>
<g opacity="0.6">
<path d="M917.941 0L892.488 25.4522L938.72 71.6842H282.988V107.68H938.72L892.488 153.912L917.941 179.364L1007.64 89.6667L917.941 0Z" fill="#005196"/>
</g>
<g opacity="0.6">
<path d="M578.885 176.505L552.542 202.849L600.403 250.71H-78.5684V287.997H600.403L552.542 335.889L578.885 362.233L671.749 269.369L578.885 176.505Z" fill="#005196"/>
</g>
<g opacity="0.6">
<path d="M361.035 201.65L343.329 219.356L375.513 251.54H-81.0586V276.623H375.513L343.329 308.808L361.035 326.544L423.497 264.082L361.035 201.65Z" fill="#005196"/>
</g>
<g opacity="0.8">
<path d="M671.81 222.707L662.281 232.236L679.587 249.542H433.918V263.037H679.587L662.281 280.374L671.81 289.903L705.408 256.305L671.81 222.707Z" fill="#08BCC2"/>
</g>
<g opacity="0.8">
<path d="M168.145 29.3867L145.244 52.2875L186.834 93.8472H-402.716V126.216H186.834L145.244 167.806L168.145 190.676L248.774 110.047L168.145 29.3867Z" fill="#08BCC2"/>
</g>
<g opacity="0.8">
<path d="M513.195 41.8669L504.957 50.0743L519.896 65.0445H307.948V76.6639H519.896L504.957 91.634L513.195 99.8413L542.182 70.8541L513.195 41.8669Z" fill="#08BCC2"/>
</g>
<g opacity="0.5">
<path d="M779.368 179.948L767.502 191.814L789.051 213.362H483.225V230.146H789.081L767.502 251.725L779.368 263.59L821.204 221.754L779.368 179.948Z" fill="#08BCC2"/>
</g>
<g opacity="0.5">
<path d="M86.379 211.21L74.0524 223.537L96.4922 245.976H-221.722V263.467H96.4922L74.0524 285.907L86.379 298.264L129.906 254.706L86.379 211.21Z" fill="#08BCC2"/>
</g>
<g opacity="0.5">
<path d="M650.815 337.672L646.142 342.375L654.626 350.859H534.128V357.468H654.626L646.142 365.983L650.815 370.655L667.291 354.179L650.815 337.672Z" fill="#08BCC2"/>
</g>
<g opacity="0.5">
<path d="M338.841 29.479L332.416 35.9035L344.067 47.5538H178.597V56.6526H344.097L332.416 68.3335L338.841 74.7274L361.465 52.1031L338.841 29.479Z" fill="#08BCC2"/>
</g>
<g opacity="0.3">
<path d="M168.329 64.9829L164.948 68.3643L171.096 74.4814H84.165V79.246H171.096L164.948 85.3939L168.329 88.7752L180.226 76.879L168.329 64.9829Z" fill="#08BCC2"/>
</g>
<g opacity="0.3">
<path d="M439.113 84.8713L420.239 103.745L454.513 138.05H-31.7529V164.732H454.513L420.239 199.037L439.113 217.911L505.602 151.391L439.113 84.8713Z" fill="#08BCC2"/>
</g>
<g opacity="0.3">
<path d="M238.6 55.8533L217.759 76.7253L255.66 114.627H-282.002V144.137H255.66L217.759 182.069L238.6 202.941L312.159 129.382L238.6 55.8533Z" fill="#08BCC2"/>
</g>
</g>
</svg>
