<svg xmlns="http://www.w3.org/2000/svg" width="365" height="773" viewBox="0 0 365 773" fill="none">
  <mask id="path-1-inside-1_181_1764" fill="white">
    <path d="M356.459 408.761C366.065 398.278 367.722 384.163 360.16 377.234L20.0834 65.6293C12.5216 58.7005 -1.3953 61.582 -11.0008 72.0652L-335.344 426.044C-344.95 436.527 -346.607 450.642 -339.045 457.571L1.0316 769.176C8.59341 776.105 22.5102 773.223 32.1158 762.74L356.459 408.761Z"/>
    <path d="M336.457 404.589C346.062 394.106 347.719 379.991 340.157 373.062L0.0806718 61.457C-7.48114 54.5283 -21.398 57.4097 -31.0035 67.8929L-355.347 421.872C-364.953 432.355 -366.609 446.47 -359.047 453.399L-18.9711 765.004C-11.4093 771.932 2.50755 769.051 12.1131 758.568L336.457 404.589Z"/>
    <path d="M316.454 400.417C326.059 389.934 327.716 375.818 320.154 368.89L-19.922 57.2848C-27.4839 50.356 -41.4007 53.2375 -51.0062 63.7207L-375.35 417.699C-384.955 428.183 -386.612 442.298 -379.05 449.226L-38.9738 760.831C-31.412 767.76 -17.4951 764.879 -7.88963 754.396L316.454 400.417Z"/>
    <path d="M296.451 396.245C306.057 385.761 307.713 371.646 300.152 364.717L-39.9248 53.1125C-47.4865 46.1838 -61.4034 49.0652 -71.009 59.5484L-395.352 413.527C-404.958 424.01 -406.615 438.126 -399.053 445.054L-58.9766 756.659C-51.4147 763.588 -37.4979 760.706 -27.8924 750.223L296.451 396.245Z"/>
    <path d="M276.448 392.072C286.054 381.589 287.711 367.474 280.149 360.545L-59.9275 48.9403C-67.4893 42.0116 -81.4061 44.893 -91.0116 55.3762L-415.355 409.355C-424.961 419.838 -426.617 433.953 -419.056 440.882L-78.9792 752.487C-71.4174 759.416 -57.5006 756.534 -47.8951 746.051L276.448 392.072Z"/>
    <path d="M256.446 387.9C266.051 377.417 267.708 363.302 260.146 356.373L-79.9302 44.768C-87.492 37.8393 -101.409 40.7208 -111.014 51.2039L-435.358 405.183C-444.963 415.666 -446.62 429.781 -439.058 436.71L-98.982 748.315C-91.4202 755.243 -77.5033 752.362 -67.8977 741.879L256.446 387.9Z"/>
    <path d="M236.443 383.728C246.048 373.245 247.705 359.129 240.143 352.201L-99.9329 40.5958C-107.495 33.6671 -121.412 36.5485 -131.017 47.0317L-455.361 401.01C-464.966 411.494 -466.623 425.609 -459.061 432.537L-118.985 744.142C-111.423 751.071 -97.506 748.19 -87.9005 737.707L236.443 383.728Z"/>
    <path d="M216.44 379.556C226.046 369.072 227.703 354.957 220.141 348.028L-119.936 36.4236C-127.497 29.4948 -141.414 32.3763 -151.02 42.8595L-475.363 396.838C-484.969 407.321 -486.626 421.436 -479.064 428.365L-138.987 739.97C-131.426 746.899 -117.509 744.017 -107.903 733.534L216.44 379.556Z"/>
    <path d="M196.438 375.383C206.043 364.9 207.7 350.785 200.138 343.856L-139.938 32.2513C-147.5 25.3226 -161.417 28.204 -171.023 38.6872L-495.366 392.666C-504.971 403.149 -506.628 417.264 -499.066 424.193L-158.99 735.798C-151.428 742.727 -137.511 739.845 -127.906 729.362L196.438 375.383Z"/>
    <path d="M176.435 371.211C186.04 360.728 187.697 346.613 180.135 339.684L-159.941 28.079C-167.503 21.1503 -181.42 24.0318 -191.025 34.515L-515.369 388.494C-524.974 398.977 -526.631 413.092 -519.069 420.021L-178.993 731.626C-171.431 738.554 -157.514 735.673 -147.909 725.19L176.435 371.211Z"/>
    <path d="M156.432 367.039C166.038 356.556 167.694 342.44 160.133 335.512L-179.944 23.9068C-187.506 16.9781 -201.422 19.8595 -211.028 30.3427L-535.371 384.321C-544.977 394.805 -546.634 408.92 -539.072 415.849L-198.996 727.453C-191.434 734.382 -177.517 731.501 -167.911 721.018L156.432 367.039Z"/>
    <path d="M136.429 362.867C146.035 352.383 147.692 338.268 140.13 331.34L-199.946 19.7346C-207.508 12.8059 -221.425 15.6873 -231.031 26.1705L-555.374 380.149C-564.98 390.632 -566.636 404.748 -559.075 411.676L-218.998 723.281C-211.436 730.21 -197.52 727.328 -187.914 716.845L136.429 362.867Z"/>
    <path d="M116.427 358.694C126.032 348.211 127.689 334.096 120.127 327.167L-219.949 15.5623C-227.511 8.63359 -241.428 11.5151 -251.033 21.9982L-575.377 375.977C-584.982 386.46 -586.639 400.575 -579.077 407.504L-239.001 719.109C-231.439 726.038 -217.522 723.156 -207.917 712.673L116.427 358.694Z"/>
    <path d="M100.125 357.913C109.73 347.43 111.387 333.314 103.825 326.386L-236.251 14.7808C-243.813 7.85204 -257.73 10.7335 -267.336 21.2167L-591.679 375.195C-601.284 385.679 -602.941 399.794 -595.379 406.722L-255.303 718.327C-247.741 725.256 -233.824 722.375 -224.219 711.892L100.125 357.913Z"/>
    <path d="M83.8223 357.131C93.4278 346.648 95.0846 332.533 87.5228 325.604L-252.554 13.9993C-260.115 7.0705 -274.032 9.95196 -283.638 20.4351L-607.981 374.414C-617.587 384.897 -619.243 399.012 -611.682 405.941L-271.605 717.546C-264.044 724.475 -250.127 721.593 -240.521 711.11L83.8223 357.131Z"/>
    <path d="M67.5201 356.35C77.1256 345.866 78.7824 331.751 71.2206 324.823L-268.856 13.2177C-276.418 6.28894 -290.334 9.17041 -299.94 19.6536L-624.283 373.632C-633.889 384.116 -635.546 398.231 -627.984 405.159L-287.908 716.764C-280.346 723.693 -266.429 720.812 -256.823 710.328L67.5201 356.35Z"/>
    <path d="M51.2179 355.568C60.8234 345.085 62.4802 330.97 54.9184 324.041L-285.158 12.4361C-292.72 5.50739 -306.637 8.38886 -316.242 18.872L-640.586 372.851C-650.191 383.334 -651.848 397.449 -644.286 404.378L-304.21 715.983C-296.648 722.911 -282.731 720.03 -273.126 709.547L51.2179 355.568Z"/>
    <path d="M34.9157 354.787C44.5212 344.303 46.178 330.188 38.6162 323.26L-301.46 11.6546C-309.022 4.72585 -322.939 7.60731 -332.544 18.0905L-656.888 372.069C-666.493 382.552 -668.15 396.668 -660.588 403.596L-320.512 715.201C-312.95 722.13 -299.033 719.248 -289.428 708.765L34.9157 354.787Z"/>
    <path d="M18.6135 354.005C28.219 343.522 29.8758 329.407 22.314 322.478L-317.762 10.8731C-325.324 3.9443 -339.241 6.82577 -348.847 17.3089L-673.19 371.288C-682.796 381.771 -684.452 395.886 -676.89 402.815L-336.814 714.42C-329.252 721.348 -315.336 718.467 -305.73 707.984L18.6135 354.005Z"/>
    <path d="M2.31128 353.223C11.9168 342.74 13.5736 328.625 6.01177 321.696L-334.065 10.0915C-341.626 3.16274 -355.543 6.04421 -365.149 16.5274L-689.492 370.506C-699.098 380.989 -700.755 395.104 -693.193 402.033L-353.116 713.638C-345.555 720.567 -331.638 717.685 -322.032 707.202L2.31128 353.223Z"/>
    <path d="M-13.9909 352.442C-4.3854 341.959 -2.72865 327.844 -10.2904 320.915L-350.367 9.30995C-357.929 2.3812 -371.845 5.26266 -381.451 15.7458L-705.794 369.725C-715.4 380.208 -717.057 394.323 -709.495 401.252L-369.419 712.857C-361.857 719.785 -347.94 716.904 -338.334 706.421L-13.9909 352.442Z"/>
    <path d="M-30.2931 351.66C-20.6876 341.177 -19.0309 327.062 -26.5926 320.133L-366.669 8.5284C-374.231 1.59965 -388.148 4.48112 -397.753 14.9643L-722.097 368.943C-731.702 379.426 -733.359 393.541 -725.797 400.47L-385.721 712.075C-378.159 719.004 -364.242 716.122 -354.637 705.639L-30.2931 351.66Z"/>
    <path d="M-46.5953 350.879C-36.9898 340.396 -35.3331 326.281 -42.8949 319.352L-382.971 7.74686C-390.533 0.818106 -404.45 3.69957 -414.055 14.1827L-738.399 368.162C-748.004 378.645 -749.661 392.76 -742.099 399.689L-402.023 711.293C-394.461 718.222 -380.544 715.341 -370.939 704.858L-46.5953 350.879Z"/>
    <path d="M-62.8975 350.097C-53.292 339.614 -51.6353 325.499 -59.197 318.57L-399.273 6.9653C-406.835 0.0365484 -420.752 2.91803 -430.358 13.4012L-754.701 367.38C-764.307 377.863 -765.963 391.978 -758.401 398.907L-418.325 710.512C-410.763 717.441 -396.847 714.559 -387.241 704.076L-62.8975 350.097Z"/>
    <path d="M-79.1997 349.316C-69.5942 338.833 -67.9375 324.717 -75.4993 317.789L-415.576 6.18375C-423.137 -0.744998 -437.054 2.13648 -446.66 12.6196L-771.003 366.598C-780.609 377.082 -782.266 391.197 -774.704 398.125L-434.627 709.73C-427.066 716.659 -413.149 713.778 -403.543 703.294L-79.1997 349.316Z"/>
    <path d="M-95.5019 348.534C-85.8964 338.051 -84.2397 323.936 -91.8015 317.007L-431.878 5.40221C-439.44 -1.52654 -453.356 1.35493 -462.962 11.8381L-787.305 365.817C-796.911 376.3 -798.568 390.415 -791.006 397.344L-450.93 708.949C-443.368 715.878 -429.451 712.996 -419.845 702.513L-95.5019 348.534Z"/>
    <path d="M-111.804 347.753C-102.199 337.269 -100.542 323.154 -108.104 316.226L-448.18 4.62066C-455.742 -2.30809 -469.659 0.573365 -479.264 11.0565L-803.608 365.035C-813.213 375.518 -814.87 389.634 -807.308 396.562L-467.232 708.167C-459.67 715.096 -445.753 712.215 -436.148 701.731L-111.804 347.753Z"/>
  </mask>
  <path d="M356.459 408.761C366.065 398.278 367.722 384.163 360.16 377.234L20.0834 65.6293C12.5216 58.7005 -1.3953 61.582 -11.0008 72.0652L-335.344 426.044C-344.95 436.527 -346.607 450.642 -339.045 457.571L1.0316 769.176C8.59341 776.105 22.5102 773.223 32.1158 762.74L356.459 408.761Z" stroke="#C0C0C0" stroke-opacity="0.2" stroke-width="2" mask="url(#path-1-inside-1_181_1764)"/>
  <path d="M336.457 404.589C346.062 394.106 347.719 379.991 340.157 373.062L0.0806718 61.457C-7.48114 54.5283 -21.398 57.4097 -31.0035 67.8929L-355.347 421.872C-364.953 432.355 -366.609 446.47 -359.047 453.399L-18.9711 765.004C-11.4093 771.932 2.50755 769.051 12.1131 758.568L336.457 404.589Z" stroke="#C0C0C0" stroke-opacity="0.2" stroke-width="2" mask="url(#path-1-inside-1_181_1764)"/>
  <path d="M316.454 400.417C326.059 389.934 327.716 375.818 320.154 368.89L-19.922 57.2848C-27.4839 50.356 -41.4007 53.2375 -51.0062 63.7207L-375.35 417.699C-384.955 428.183 -386.612 442.298 -379.05 449.226L-38.9738 760.831C-31.412 767.76 -17.4951 764.879 -7.88963 754.396L316.454 400.417Z" stroke="#C0C0C0" stroke-opacity="0.2" stroke-width="2" mask="url(#path-1-inside-1_181_1764)"/>
  <path d="M296.451 396.245C306.057 385.761 307.713 371.646 300.152 364.717L-39.9248 53.1125C-47.4865 46.1838 -61.4034 49.0652 -71.009 59.5484L-395.352 413.527C-404.958 424.01 -406.615 438.126 -399.053 445.054L-58.9766 756.659C-51.4147 763.588 -37.4979 760.706 -27.8924 750.223L296.451 396.245Z" stroke="#C0C0C0" stroke-opacity="0.2" stroke-width="2" mask="url(#path-1-inside-1_181_1764)"/>
  <path d="M276.448 392.072C286.054 381.589 287.711 367.474 280.149 360.545L-59.9275 48.9403C-67.4893 42.0116 -81.4061 44.893 -91.0116 55.3762L-415.355 409.355C-424.961 419.838 -426.617 433.953 -419.056 440.882L-78.9792 752.487C-71.4174 759.416 -57.5006 756.534 -47.8951 746.051L276.448 392.072Z" stroke="#C0C0C0" stroke-opacity="0.2" stroke-width="2" mask="url(#path-1-inside-1_181_1764)"/>
  <path d="M256.446 387.9C266.051 377.417 267.708 363.302 260.146 356.373L-79.9302 44.768C-87.492 37.8393 -101.409 40.7208 -111.014 51.2039L-435.358 405.183C-444.963 415.666 -446.62 429.781 -439.058 436.71L-98.982 748.315C-91.4202 755.243 -77.5033 752.362 -67.8977 741.879L256.446 387.9Z" stroke="#C0C0C0" stroke-opacity="0.2" stroke-width="2" mask="url(#path-1-inside-1_181_1764)"/>
  <path d="M236.443 383.728C246.048 373.245 247.705 359.129 240.143 352.201L-99.9329 40.5958C-107.495 33.6671 -121.412 36.5485 -131.017 47.0317L-455.361 401.01C-464.966 411.494 -466.623 425.609 -459.061 432.537L-118.985 744.142C-111.423 751.071 -97.506 748.19 -87.9005 737.707L236.443 383.728Z" stroke="#C0C0C0" stroke-opacity="0.2" stroke-width="2" mask="url(#path-1-inside-1_181_1764)"/>
  <path d="M216.44 379.556C226.046 369.072 227.703 354.957 220.141 348.028L-119.936 36.4236C-127.497 29.4948 -141.414 32.3763 -151.02 42.8595L-475.363 396.838C-484.969 407.321 -486.626 421.436 -479.064 428.365L-138.987 739.97C-131.426 746.899 -117.509 744.017 -107.903 733.534L216.44 379.556Z" stroke="#C0C0C0" stroke-opacity="0.2" stroke-width="2" mask="url(#path-1-inside-1_181_1764)"/>
  <path d="M196.438 375.383C206.043 364.9 207.7 350.785 200.138 343.856L-139.938 32.2513C-147.5 25.3226 -161.417 28.204 -171.023 38.6872L-495.366 392.666C-504.971 403.149 -506.628 417.264 -499.066 424.193L-158.99 735.798C-151.428 742.727 -137.511 739.845 -127.906 729.362L196.438 375.383Z" stroke="#C0C0C0" stroke-opacity="0.2" stroke-width="2" mask="url(#path-1-inside-1_181_1764)"/>
  <path d="M176.435 371.211C186.04 360.728 187.697 346.613 180.135 339.684L-159.941 28.079C-167.503 21.1503 -181.42 24.0318 -191.025 34.515L-515.369 388.494C-524.974 398.977 -526.631 413.092 -519.069 420.021L-178.993 731.626C-171.431 738.554 -157.514 735.673 -147.909 725.19L176.435 371.211Z" stroke="#C0C0C0" stroke-opacity="0.2" stroke-width="2" mask="url(#path-1-inside-1_181_1764)"/>
  <path d="M156.432 367.039C166.038 356.556 167.694 342.44 160.133 335.512L-179.944 23.9068C-187.506 16.9781 -201.422 19.8595 -211.028 30.3427L-535.371 384.321C-544.977 394.805 -546.634 408.92 -539.072 415.849L-198.996 727.453C-191.434 734.382 -177.517 731.501 -167.911 721.018L156.432 367.039Z" stroke="#C0C0C0" stroke-opacity="0.2" stroke-width="2" mask="url(#path-1-inside-1_181_1764)"/>
  <path d="M136.429 362.867C146.035 352.383 147.692 338.268 140.13 331.34L-199.946 19.7346C-207.508 12.8059 -221.425 15.6873 -231.031 26.1705L-555.374 380.149C-564.98 390.632 -566.636 404.748 -559.075 411.676L-218.998 723.281C-211.436 730.21 -197.52 727.328 -187.914 716.845L136.429 362.867Z" stroke="#C0C0C0" stroke-opacity="0.2" stroke-width="2" mask="url(#path-1-inside-1_181_1764)"/>
  <path d="M116.427 358.694C126.032 348.211 127.689 334.096 120.127 327.167L-219.949 15.5623C-227.511 8.63359 -241.428 11.5151 -251.033 21.9982L-575.377 375.977C-584.982 386.46 -586.639 400.575 -579.077 407.504L-239.001 719.109C-231.439 726.038 -217.522 723.156 -207.917 712.673L116.427 358.694Z" stroke="#C0C0C0" stroke-opacity="0.2" stroke-width="2" mask="url(#path-1-inside-1_181_1764)"/>
  <path d="M100.125 357.913C109.73 347.43 111.387 333.314 103.825 326.386L-236.251 14.7808C-243.813 7.85204 -257.73 10.7335 -267.336 21.2167L-591.679 375.195C-601.284 385.679 -602.941 399.794 -595.379 406.722L-255.303 718.327C-247.741 725.256 -233.824 722.375 -224.219 711.892L100.125 357.913Z" stroke="#C0C0C0" stroke-opacity="0.2" stroke-width="2" mask="url(#path-1-inside-1_181_1764)"/>
  <path d="M83.8223 357.131C93.4278 346.648 95.0846 332.533 87.5228 325.604L-252.554 13.9993C-260.115 7.0705 -274.032 9.95196 -283.638 20.4351L-607.981 374.414C-617.587 384.897 -619.243 399.012 -611.682 405.941L-271.605 717.546C-264.044 724.475 -250.127 721.593 -240.521 711.11L83.8223 357.131Z" stroke="#C0C0C0" stroke-opacity="0.2" stroke-width="2" mask="url(#path-1-inside-1_181_1764)"/>
  <path d="M67.5201 356.35C77.1256 345.866 78.7824 331.751 71.2206 324.823L-268.856 13.2177C-276.418 6.28894 -290.334 9.17041 -299.94 19.6536L-624.283 373.632C-633.889 384.116 -635.546 398.231 -627.984 405.159L-287.908 716.764C-280.346 723.693 -266.429 720.812 -256.823 710.328L67.5201 356.35Z" stroke="#C0C0C0" stroke-opacity="0.2" stroke-width="2" mask="url(#path-1-inside-1_181_1764)"/>
  <path d="M51.2179 355.568C60.8234 345.085 62.4802 330.97 54.9184 324.041L-285.158 12.4361C-292.72 5.50739 -306.637 8.38886 -316.242 18.872L-640.586 372.851C-650.191 383.334 -651.848 397.449 -644.286 404.378L-304.21 715.983C-296.648 722.911 -282.731 720.03 -273.126 709.547L51.2179 355.568Z" stroke="#C0C0C0" stroke-opacity="0.2" stroke-width="2" mask="url(#path-1-inside-1_181_1764)"/>
  <path d="M34.9157 354.787C44.5212 344.303 46.178 330.188 38.6162 323.26L-301.46 11.6546C-309.022 4.72585 -322.939 7.60731 -332.544 18.0905L-656.888 372.069C-666.493 382.552 -668.15 396.668 -660.588 403.596L-320.512 715.201C-312.95 722.13 -299.033 719.248 -289.428 708.765L34.9157 354.787Z" stroke="#C0C0C0" stroke-opacity="0.2" stroke-width="2" mask="url(#path-1-inside-1_181_1764)"/>
  <path d="M18.6135 354.005C28.219 343.522 29.8758 329.407 22.314 322.478L-317.762 10.8731C-325.324 3.9443 -339.241 6.82577 -348.847 17.3089L-673.19 371.288C-682.796 381.771 -684.452 395.886 -676.89 402.815L-336.814 714.42C-329.252 721.348 -315.336 718.467 -305.73 707.984L18.6135 354.005Z" stroke="#C0C0C0" stroke-opacity="0.2" stroke-width="2" mask="url(#path-1-inside-1_181_1764)"/>
  <path d="M2.31128 353.223C11.9168 342.74 13.5736 328.625 6.01177 321.696L-334.065 10.0915C-341.626 3.16274 -355.543 6.04421 -365.149 16.5274L-689.492 370.506C-699.098 380.989 -700.755 395.104 -693.193 402.033L-353.116 713.638C-345.555 720.567 -331.638 717.685 -322.032 707.202L2.31128 353.223Z" stroke="#C0C0C0" stroke-opacity="0.2" stroke-width="2" mask="url(#path-1-inside-1_181_1764)"/>
  <path d="M-13.9909 352.442C-4.3854 341.959 -2.72865 327.844 -10.2904 320.915L-350.367 9.30995C-357.929 2.3812 -371.845 5.26266 -381.451 15.7458L-705.794 369.725C-715.4 380.208 -717.057 394.323 -709.495 401.252L-369.419 712.857C-361.857 719.785 -347.94 716.904 -338.334 706.421L-13.9909 352.442Z" stroke="#C0C0C0" stroke-opacity="0.2" stroke-width="2" mask="url(#path-1-inside-1_181_1764)"/>
  <path d="M-30.2931 351.66C-20.6876 341.177 -19.0309 327.062 -26.5926 320.133L-366.669 8.5284C-374.231 1.59965 -388.148 4.48112 -397.753 14.9643L-722.097 368.943C-731.702 379.426 -733.359 393.541 -725.797 400.47L-385.721 712.075C-378.159 719.004 -364.242 716.122 -354.637 705.639L-30.2931 351.66Z" stroke="#C0C0C0" stroke-opacity="0.2" stroke-width="2" mask="url(#path-1-inside-1_181_1764)"/>
  <path d="M-46.5953 350.879C-36.9898 340.396 -35.3331 326.281 -42.8949 319.352L-382.971 7.74686C-390.533 0.818106 -404.45 3.69957 -414.055 14.1827L-738.399 368.162C-748.004 378.645 -749.661 392.76 -742.099 399.689L-402.023 711.293C-394.461 718.222 -380.544 715.341 -370.939 704.858L-46.5953 350.879Z" stroke="#C0C0C0" stroke-opacity="0.2" stroke-width="2" mask="url(#path-1-inside-1_181_1764)"/>
  <path d="M-62.8975 350.097C-53.292 339.614 -51.6353 325.499 -59.197 318.57L-399.273 6.9653C-406.835 0.0365484 -420.752 2.91803 -430.358 13.4012L-754.701 367.38C-764.307 377.863 -765.963 391.978 -758.401 398.907L-418.325 710.512C-410.763 717.441 -396.847 714.559 -387.241 704.076L-62.8975 350.097Z" stroke="#C0C0C0" stroke-opacity="0.2" stroke-width="2" mask="url(#path-1-inside-1_181_1764)"/>
  <path d="M-79.1997 349.316C-69.5942 338.833 -67.9375 324.717 -75.4993 317.789L-415.576 6.18375C-423.137 -0.744998 -437.054 2.13648 -446.66 12.6196L-771.003 366.598C-780.609 377.082 -782.266 391.197 -774.704 398.125L-434.627 709.73C-427.066 716.659 -413.149 713.778 -403.543 703.294L-79.1997 349.316Z" stroke="#C0C0C0" stroke-opacity="0.2" stroke-width="2" mask="url(#path-1-inside-1_181_1764)"/>
  <path d="M-95.5019 348.534C-85.8964 338.051 -84.2397 323.936 -91.8015 317.007L-431.878 5.40221C-439.44 -1.52654 -453.356 1.35493 -462.962 11.8381L-787.305 365.817C-796.911 376.3 -798.568 390.415 -791.006 397.344L-450.93 708.949C-443.368 715.878 -429.451 712.996 -419.845 702.513L-95.5019 348.534Z" stroke="#C0C0C0" stroke-opacity="0.2" stroke-width="2" mask="url(#path-1-inside-1_181_1764)"/>
  <path d="M-111.804 347.753C-102.199 337.269 -100.542 323.154 -108.104 316.226L-448.18 4.62066C-455.742 -2.30809 -469.659 0.573365 -479.264 11.0565L-803.608 365.035C-813.213 375.518 -814.87 389.634 -807.308 396.562L-467.232 708.167C-459.67 715.096 -445.753 712.215 -436.148 701.731L-111.804 347.753Z" stroke="#C0C0C0" stroke-opacity="0.2" stroke-width="2" mask="url(#path-1-inside-1_181_1764)"/>
</svg>