<svg width="40" height="40" viewBox="0 0 40 40" fill="none" xmlns="http://www.w3.org/2000/svg">
<g clip-path="url(#clip0_21_1380)">
<path d="M2.50001 2.72166C-0.643327 5.98666 6.57141e-06 9.455 6.57141e-06 19.9917C6.57141e-06 28.7417 -1.52666 37.5133 6.46334 39.5783C8.95834 40.22 31.065 40.22 33.5567 39.575C36.8833 38.7167 39.59 36.0183 39.96 31.3133C40.0117 30.6567 40.0117 9.33833 39.9583 8.66833C39.565 3.65666 36.48 0.768329 32.415 0.183329C31.4833 0.0483293 31.2967 0.00832928 26.5167 -4.05312e-06C9.56167 0.00832928 5.84501 -0.746671 2.50001 2.72166Z" fill="url(#paint0_linear_21_1380)"/>
<path d="M19.9967 5.23154C13.945 5.23154 8.19835 4.69321 6.00335 10.3265C5.09668 12.6532 5.22835 15.6749 5.22835 20.0015C5.22835 23.7982 5.10668 27.3665 6.00335 29.6749C8.19335 35.3115 13.9867 34.7715 19.9934 34.7715C25.7884 34.7715 31.7634 35.3749 33.985 29.6749C34.8934 27.3249 34.76 24.3482 34.76 20.0015C34.76 14.2315 35.0784 10.5065 32.28 7.70987C29.4467 4.87654 25.615 5.23154 19.99 5.23154H19.9967ZM18.6734 7.89321C31.2967 7.87321 32.9034 6.46987 32.0167 25.9649C31.7017 32.8599 26.4517 32.1032 19.9983 32.1032C8.23168 32.1032 7.89335 31.7665 7.89335 19.9949C7.89335 8.08654 8.82668 7.89987 18.6734 7.88987V7.89321ZM27.88 10.3449C27.4101 10.3449 26.9595 10.5315 26.6273 10.8638C26.295 11.196 26.1084 11.6467 26.1084 12.1165C26.1084 12.5864 26.295 13.037 26.6273 13.3693C26.9595 13.7015 27.4101 13.8882 27.88 13.8882C28.3499 13.8882 28.8005 13.7015 29.1328 13.3693C29.465 13.037 29.6517 12.5864 29.6517 12.1165C29.6517 11.6467 29.465 11.196 29.1328 10.8638C28.8005 10.5315 28.3499 10.3449 27.88 10.3449ZM19.9967 12.4165C19.0007 12.4166 18.0145 12.6129 17.0944 12.9942C16.1743 13.3754 15.3383 13.9341 14.6341 14.6385C13.212 16.0609 12.4131 17.9901 12.4134 20.0015C12.4136 22.013 13.2128 23.942 14.6353 25.3641C16.0578 26.7863 17.9869 27.5851 19.9983 27.5849C22.0098 27.5847 23.9388 26.7854 25.3609 25.3629C26.7831 23.9405 27.5819 22.0113 27.5817 19.9999C27.5815 17.9884 26.7822 16.0595 25.3597 14.6373C23.9373 13.2152 22.0081 12.4163 19.9967 12.4165ZM19.9967 15.0782C26.505 15.0782 26.5133 24.9249 19.9967 24.9249C13.49 24.9249 13.48 15.0782 19.9967 15.0782Z" fill="white"/>
</g>
<defs>
<linearGradient id="paint0_linear_21_1380" x1="2.57671" y1="37.4452" x2="39.7525" y2="5.26996" gradientUnits="userSpaceOnUse">
<stop stop-color="#FFDD55"/>
<stop offset="0.5" stop-color="#FF543E"/>
<stop offset="1" stop-color="#C837AB"/>
</linearGradient>
<clipPath id="clip0_21_1380">
<rect width="40" height="40" fill="white"/>
</clipPath>
</defs>
</svg>
