<svg width="216" height="92" viewBox="0 0 216 92" fill="none" xmlns="http://www.w3.org/2000/svg">
<path d="M36.4767 30.8131C36.4767 30.8131 13.5586 38.4533 21.0715 63.3694C21.0715 63.3694 20.8049 64.8888 29.515 72.6329C29.515 72.6285 11.6973 45.2148 36.4767 30.8131Z" fill="#F34E3A"/>
<path d="M34.4619 37.0725H52.3699V40.5225H38.7536V51.1106H51.3308V54.5129H38.7536V68.9276H34.4619V37.0725Z" fill="#FFE718"/>
<path d="M62.7741 37.0725V68.9276H58.4823V37.0725H62.7741Z" fill="#FFE718"/>
<path d="M66.4786 40.5701V37.0725H91.0953V40.5701H80.9351V68.9276H76.5936V40.5701H66.4786Z" fill="#FFE718"/>
<path d="M94.7908 68.9275V37.0725H99.4756L110.128 53.1883C112.595 56.924 114.519 60.2788 116.096 63.5383L116.195 63.4907C115.802 59.2355 115.703 55.3613 115.703 50.3963V37.0682H119.746V68.9232H115.405L104.847 52.7598C102.53 49.2146 100.307 45.5741 98.6308 42.1241L98.4817 42.1717C98.7302 46.1888 98.8251 50.0197 98.8251 55.3094V68.9232H94.7908V68.9275Z" fill="#FFE718"/>
<path d="M144.467 53.9935H131.542V65.4776H145.944V68.9276H127.25V37.0725H145.208V40.5225H131.542V50.5911H144.467V53.9935Z" fill="#FFE718"/>
<path d="M150.932 63.9192C152.856 65.0534 155.666 65.997 158.625 65.997C163.017 65.997 165.583 63.7764 165.583 60.5602C165.583 57.582 163.807 55.8808 159.317 54.2272C153.891 52.3832 150.534 49.6907 150.534 45.1975C150.534 40.2368 154.826 36.5487 161.286 36.5487C164.688 36.5487 167.155 37.3063 168.637 38.1071L167.453 41.4618C166.369 40.8948 164.146 39.9511 161.137 39.9511C156.597 39.9511 154.871 42.5527 154.871 44.7257C154.871 47.7038 156.895 49.167 161.481 50.8681C167.105 52.9459 169.965 55.5475 169.965 60.2268C169.965 65.1443 166.165 69.3951 158.323 69.3951C155.115 69.3951 151.614 68.499 149.839 67.3606L150.932 63.9192Z" fill="#FFE718"/>
<path d="M175.255 63.9192C177.179 65.0533 179.989 65.997 182.949 65.997C187.34 65.997 189.906 63.7764 189.906 60.5601C189.906 57.582 188.13 55.8808 183.64 54.2272C178.214 52.3832 174.857 49.6907 174.857 45.1975C174.857 40.2368 179.149 36.5487 185.609 36.5487C189.011 36.5487 191.478 37.3062 192.96 38.107L191.776 41.4618C190.692 40.8947 188.469 39.9511 185.46 39.9511C180.92 39.9511 179.194 42.5526 179.194 44.7257C179.194 47.7038 181.218 49.1669 185.804 50.8681C191.428 52.9459 194.288 55.5475 194.288 60.2268C194.288 65.1442 190.489 69.395 182.646 69.395C179.438 69.395 175.937 68.499 174.162 67.3605L175.255 63.9192Z" fill="#FFE718"/>
<path d="M47.4004 13.3986C47.2559 12.771 44.1884 8.1782 37.1453 7.72801C31.5796 7.36873 27.7486 11.6671 27.4098 14.5111C27.1432 16.7404 28.9413 20.4588 28.3359 22.9954C28.3359 22.9997 28.2817 23.3287 28.0513 23.7659C28.0332 23.8049 28.0106 23.8438 27.988 23.8785C27.9745 23.9044 27.9564 23.9304 27.9429 23.9521C27.9067 24.0127 27.866 24.0733 27.8254 24.1339C27.7802 24.1988 27.726 24.2681 27.6673 24.333C27.6628 24.3373 27.6628 24.3373 27.6628 24.3416C27.0393 25.0905 25.8557 25.8783 23.6059 25.9086C23.6059 25.9086 25.7834 25.5753 26.7547 24.1945C26.0499 23.3157 24.4823 21.6622 22.0563 20.7055C22.0292 20.6969 22.0066 20.6882 21.9795 20.6752C21.8124 20.6103 21.6407 20.554 21.4645 20.4977C21.329 20.4545 21.1889 20.4112 21.0308 20.3679C20.9134 20.3332 20.7914 20.3029 20.6694 20.2726C20.5519 20.2423 20.43 20.2164 20.308 20.1904C19.2283 19.9696 18.013 19.8874 16.6803 20.0562C15.0811 20.3029 13.3734 21.0129 11.8554 22.6145C11.8554 22.6145 12.899 20.3246 16.1246 19.5324C14.9952 18.5238 12.3569 16.4504 9.8496 16.5586C9.8496 16.5586 13.5586 14.8661 14.566 11.1477C15.578 7.42933 19.3231 5.61127 20.2041 5.87532C21.085 6.1437 22.3048 7.65875 23.5697 7.44664C24.8347 7.23453 24.794 6.10474 24.794 6.10474C24.794 6.10474 26.5921 5.66321 27.3104 5.35588C28.0287 5.04854 27.8706 3.88411 26.9309 2.59848C25.9957 1.31285 25.3587 -0.440285 24.0848 0.100805C22.8063 0.637567 20.8366 1.0488 19.2102 1.09208C17.5838 1.13537 16.861 1.60287 15.2753 2.77163C13.6896 3.94038 9.36621 6.48134 6.45231 9.43353C3.53842 12.39 2.01596 14.035 0.66518 14.8531C-0.685602 15.6712 0.376049 16.4547 0.760051 17.5932C1.13953 18.7316 0.656144 21.7574 2.29154 24.2464C3.43903 25.9952 4.97955 27.5839 5.79725 28.376C5.79725 27.7743 5.97344 27.4453 5.97344 27.4453C5.98247 28.4583 6.84986 29.8824 7.12092 30.3023C7.26549 30.5231 7.42813 30.7568 7.60883 30.9862C8.02446 29.1552 8.97317 28.5665 8.97317 28.5665C8.30004 29.4582 8.14192 30.6572 8.2142 31.8347C8.25034 32.2502 8.37684 33.3324 8.72921 34.5704C8.8783 35.0769 9.0319 35.4924 9.13129 35.7521C9.29844 36.1764 9.49722 36.5962 9.72762 36.9988C10.8209 35.1591 12.3027 34.6483 12.3027 34.6483C10.9835 35.5141 10.2923 36.7261 9.96706 37.9858C9.84508 38.5398 9.67793 39.5831 9.74117 40.8774C9.83604 42.2582 10.1613 43.3837 10.2788 43.756C10.6131 44.7472 11.1236 45.7688 11.9006 46.7601C14.679 50.301 18.7223 59.993 19.2825 61.3435C18.4829 59.3393 11.1642 39.0593 37.954 29.3327C37.954 29.3327 39.7837 31.3369 41.0441 30.259C42.1374 29.324 41.5907 28.6401 42.7247 28.3414C43.1222 28.2375 42.8557 27.5492 42.8557 27.5492C42.8557 27.5492 43.4927 27.5103 43.4159 27.0904C43.3616 26.783 43.3255 25.6489 43.8541 25.6359C44.4459 25.6229 45.0558 25.532 45.1326 25.216C45.2139 24.8784 44.6582 22.7054 44.3826 21.6708C44.2923 21.3288 44.3826 20.9652 44.6266 20.6969L45.6476 19.5801C45.7786 19.4372 45.8554 19.2554 45.869 19.0649L46.0948 15.8227C46.0994 15.827 47.545 14.0263 47.4004 13.3986Z" fill="#F34E3A"/>
<path opacity="0.4" d="M11.7831 23.4586C11.7831 23.4586 14.9274 20.1471 19.3954 20.9177C23.8634 21.6882 25.3316 24.2638 25.3316 24.2638C25.3316 24.2638 18.6997 29.8132 11.7831 23.4586Z" fill="url(#paint0_linear_31_1211)"/>
<path opacity="0.4" d="M11.3178 22.1686C11.3178 22.1686 12.0904 19.883 14.7874 19.29C14.7874 19.29 12.0271 16.8356 8.66598 17.1516C8.66598 17.1473 4.95245 19.2467 11.3178 22.1686Z" fill="url(#paint1_linear_31_1211)"/>
<path d="M162.212 71.5853H28.738L29.515 72.6279H162.212V71.5853Z" fill="url(#paint2_linear_31_1211)"/>
<path opacity="0.4" d="M29.6324 22.1686C29.6324 22.1686 29.1987 18.9307 28.6702 16.3465C28.1416 13.7622 30.545 9.99624 35.1304 9.04825C39.7159 8.10026 44.7214 11.0784 45.1551 12.8792C45.5843 14.6799 33.7751 28.3587 29.6324 22.1686Z" fill="url(#paint3_linear_31_1211)"/>
<path d="M31.4091 76.1725H33.0227L36.25 81.6043H36.3864L39.6136 76.1725H41.2273L37.0227 83.0134V87.8088H35.6136V83.0134L31.4091 76.1725ZM52.321 81.9907C52.321 83.2179 52.0994 84.2785 51.6562 85.1725C51.2131 86.0664 50.6051 86.7558 49.8324 87.2407C49.0597 87.7255 48.1771 87.9679 47.1847 87.9679C46.1922 87.9679 45.3097 87.7255 44.5369 87.2407C43.7642 86.7558 43.1563 86.0664 42.7131 85.1725C42.2699 84.2785 42.0483 83.2179 42.0483 81.9907C42.0483 80.7634 42.2699 79.7028 42.7131 78.8088C43.1563 77.9149 43.7642 77.2255 44.5369 76.7407C45.3097 76.2558 46.1922 76.0134 47.1847 76.0134C48.1771 76.0134 49.0597 76.2558 49.8324 76.7407C50.6051 77.2255 51.2131 77.9149 51.6562 78.8088C52.0994 79.7028 52.321 80.7634 52.321 81.9907ZM50.9574 81.9907C50.9574 80.9831 50.7888 80.1327 50.4517 79.4395C50.1184 78.7463 49.6657 78.2217 49.0938 77.8657C48.5256 77.5096 47.8892 77.3316 47.1847 77.3316C46.4801 77.3316 45.8419 77.5096 45.2699 77.8657C44.7017 78.2217 44.2491 78.7463 43.9119 79.4395C43.5786 80.1327 43.4119 80.9831 43.4119 81.9907C43.4119 82.9982 43.5786 83.8486 43.9119 84.5418C44.2491 85.235 44.7017 85.7596 45.2699 86.1157C45.8419 86.4717 46.4801 86.6497 47.1847 86.6497C47.8892 86.6497 48.5256 86.4717 49.0938 86.1157C49.6657 85.7596 50.1184 85.235 50.4517 84.5418C50.7888 83.8486 50.9574 82.9982 50.9574 81.9907ZM62.3267 76.1725H63.7358V83.877C63.7358 84.6725 63.5483 85.3827 63.1733 86.0077C62.8021 86.6289 62.2775 87.1194 61.5994 87.4793C60.9214 87.8354 60.1259 88.0134 59.2131 88.0134C58.3002 88.0134 57.5047 87.8354 56.8267 87.4793C56.1487 87.1194 55.6222 86.6289 55.2472 86.0077C54.8759 85.3827 54.6903 84.6725 54.6903 83.877V76.1725H56.0994V83.7634C56.0994 84.3316 56.2244 84.8372 56.4744 85.2804C56.7244 85.7198 57.0805 86.0664 57.5426 86.3202C58.0085 86.5702 58.5653 86.6952 59.2131 86.6952C59.8608 86.6952 60.4176 86.5702 60.8835 86.3202C61.3494 86.0664 61.7055 85.7198 61.9517 85.2804C62.2017 84.8372 62.3267 84.3316 62.3267 83.7634V76.1725ZM66.5497 87.8088V76.1725H70.4815C71.3906 76.1725 72.1368 76.3278 72.7202 76.6384C73.3035 76.9452 73.7353 77.3675 74.0156 77.9054C74.2959 78.4433 74.4361 79.055 74.4361 79.7407C74.4361 80.4263 74.2959 81.0342 74.0156 81.5645C73.7353 82.0948 73.3054 82.5115 72.7259 82.8145C72.1463 83.1138 71.4058 83.2634 70.5043 83.2634H67.3224V81.9907H70.4588C71.08 81.9907 71.58 81.8997 71.9588 81.7179C72.3414 81.5361 72.6179 81.2785 72.7884 80.9452C72.9626 80.6081 73.0497 80.2066 73.0497 79.7407C73.0497 79.2747 72.9626 78.8675 72.7884 78.5191C72.6141 78.1706 72.3357 77.9016 71.9531 77.7122C71.5705 77.5191 71.0649 77.4225 70.4361 77.4225H67.9588V87.8088H66.5497ZM72.027 82.5816L74.8906 87.8088H73.2543L70.4361 82.5816H72.027ZM87.6477 79.0816C87.5795 78.5058 87.303 78.0588 86.8182 77.7407C86.3333 77.4225 85.7386 77.2634 85.0341 77.2634C84.5189 77.2634 84.0682 77.3467 83.6818 77.5134C83.2992 77.68 83 77.9092 82.7841 78.2009C82.572 78.4925 82.4659 78.824 82.4659 79.1952C82.4659 79.5058 82.5398 79.7729 82.6875 79.9963C82.839 80.216 83.0322 80.3997 83.267 80.5475C83.5019 80.6914 83.7481 80.8107 84.0057 80.9054C84.2633 80.9963 84.5 81.0702 84.7159 81.127L85.8977 81.4452C86.2008 81.5247 86.5379 81.6346 86.9091 81.7747C87.2841 81.9149 87.642 82.1062 87.983 82.3486C88.3277 82.5872 88.6117 82.8941 88.8352 83.2691C89.0587 83.6441 89.1705 84.1043 89.1705 84.6497C89.1705 85.2785 89.0057 85.8467 88.6761 86.3543C88.3504 86.8619 87.8731 87.2653 87.2443 87.5645C86.6193 87.8638 85.8598 88.0134 84.9659 88.0134C84.1326 88.0134 83.411 87.8789 82.8011 87.61C82.1951 87.341 81.7178 86.966 81.3693 86.485C81.0246 86.0039 80.8295 85.4452 80.7841 84.8088H82.2386C82.2765 85.2482 82.4242 85.6119 82.6818 85.8997C82.9432 86.1838 83.2727 86.396 83.6705 86.5361C84.072 86.6725 84.5038 86.7407 84.9659 86.7407C85.5038 86.7407 85.9867 86.6535 86.4148 86.4793C86.8428 86.3013 87.1818 86.055 87.4318 85.7407C87.6818 85.4225 87.8068 85.0513 87.8068 84.627C87.8068 84.2407 87.6989 83.9263 87.483 83.6838C87.267 83.4414 86.983 83.2444 86.6307 83.0929C86.2784 82.9414 85.8977 82.8088 85.4886 82.6952L84.0568 82.2861C83.1477 82.0247 82.428 81.6516 81.8977 81.1668C81.3674 80.6819 81.1023 80.0475 81.1023 79.2634C81.1023 78.6119 81.2784 78.0437 81.6307 77.5588C81.9867 77.0702 82.464 76.6914 83.0625 76.4225C83.6648 76.1497 84.3371 76.0134 85.0795 76.0134C85.8295 76.0134 86.4962 76.1479 87.0795 76.4168C87.6629 76.6819 88.125 77.0456 88.4659 77.5077C88.8106 77.9698 88.9924 78.4944 89.0114 79.0816H87.6477ZM91.4872 87.8088V76.1725H92.8963V86.5588H98.3054V87.8088H91.4872ZM109.852 81.9907C109.852 83.2179 109.631 84.2785 109.188 85.1725C108.744 86.0664 108.136 86.7558 107.364 87.2407C106.591 87.7255 105.708 87.9679 104.716 87.9679C103.723 87.9679 102.841 87.7255 102.068 87.2407C101.295 86.7558 100.688 86.0664 100.244 85.1725C99.8011 84.2785 99.5795 83.2179 99.5795 81.9907C99.5795 80.7634 99.8011 79.7028 100.244 78.8088C100.688 77.9149 101.295 77.2255 102.068 76.7407C102.841 76.2558 103.723 76.0134 104.716 76.0134C105.708 76.0134 106.591 76.2558 107.364 76.7407C108.136 77.2255 108.744 77.9149 109.188 78.8088C109.631 79.7028 109.852 80.7634 109.852 81.9907ZM108.489 81.9907C108.489 80.9831 108.32 80.1327 107.983 79.4395C107.65 78.7463 107.197 78.2217 106.625 77.8657C106.057 77.5096 105.42 77.3316 104.716 77.3316C104.011 77.3316 103.373 77.5096 102.801 77.8657C102.233 78.2217 101.78 78.7463 101.443 79.4395C101.11 80.1327 100.943 80.9831 100.943 81.9907C100.943 82.9982 101.11 83.8486 101.443 84.5418C101.78 85.235 102.233 85.7596 102.801 86.1157C103.373 86.4717 104.011 86.6497 104.716 86.6497C105.42 86.6497 106.057 86.4717 106.625 86.1157C107.197 85.7596 107.65 85.235 107.983 84.5418C108.32 83.8486 108.489 82.9982 108.489 81.9907ZM120.176 79.8088C120.051 79.4263 119.886 79.0835 119.682 78.7804C119.481 78.4736 119.241 78.2122 118.96 77.9963C118.684 77.7804 118.369 77.6157 118.017 77.502C117.665 77.3884 117.278 77.3316 116.858 77.3316C116.169 77.3316 115.542 77.5096 114.977 77.8657C114.413 78.2217 113.964 78.7463 113.631 79.4395C113.297 80.1327 113.131 80.9831 113.131 81.9907C113.131 82.9982 113.299 83.8486 113.636 84.5418C113.973 85.235 114.43 85.7596 115.006 86.1157C115.581 86.4717 116.229 86.6497 116.949 86.6497C117.616 86.6497 118.203 86.5077 118.71 86.2236C119.222 85.9357 119.619 85.5304 119.903 85.0077C120.191 84.4812 120.335 83.8619 120.335 83.1497L120.767 83.2407H117.267V81.9907H121.699V83.2407C121.699 84.199 121.494 85.0323 121.085 85.7407C120.68 86.449 120.119 86.9982 119.403 87.3884C118.691 87.7747 117.873 87.9679 116.949 87.9679C115.919 87.9679 115.013 87.7255 114.233 87.2407C113.456 86.7558 112.85 86.0664 112.415 85.1725C111.983 84.2785 111.767 83.2179 111.767 81.9907C111.767 81.0702 111.89 80.2425 112.136 79.5077C112.386 78.7691 112.739 78.1403 113.193 77.6213C113.648 77.1024 114.186 76.7047 114.807 76.4282C115.428 76.1516 116.112 76.0134 116.858 76.0134C117.472 76.0134 118.044 76.1062 118.574 76.2918C119.108 76.4736 119.583 76.7331 120 77.0702C120.42 77.4035 120.771 77.8032 121.051 78.2691C121.331 78.7312 121.525 79.2444 121.631 79.8088H120.176ZM124.23 87.8088H122.753L127.026 76.1725H128.48L132.753 87.8088H131.276L127.798 78.0134H127.707L124.23 87.8088ZM124.776 83.2634H130.73V84.5134H124.776V83.2634ZM143.793 76.1725V87.8088H142.429L136.088 78.6725H135.974V87.8088H134.565V76.1725H135.929L142.293 85.3316H142.406V76.1725H143.793ZM151.112 87.8088V76.1725H152.521V81.3543H158.726V76.1725H160.135V87.8088H158.726V82.6043H152.521V87.8088H151.112ZM162.956 87.8088V76.1725H169.979V77.4225H164.365V81.3543H169.615V82.6043H164.365V86.5588H170.07V87.8088H162.956ZM172.518 87.8088V76.1725H176.45C177.359 76.1725 178.106 76.3278 178.689 76.6384C179.272 76.9452 179.704 77.3675 179.984 77.9054C180.265 78.4433 180.405 79.055 180.405 79.7407C180.405 80.4263 180.265 81.0342 179.984 81.5645C179.704 82.0948 179.274 82.5115 178.695 82.8145C178.115 83.1138 177.375 83.2634 176.473 83.2634H173.291V81.9907H176.428C177.049 81.9907 177.549 81.8997 177.928 81.7179C178.31 81.5361 178.587 81.2785 178.757 80.9452C178.931 80.6081 179.018 80.2066 179.018 79.7407C179.018 79.2747 178.931 78.8675 178.757 78.5191C178.583 78.1706 178.304 77.9016 177.922 77.7122C177.539 77.5191 177.034 77.4225 176.405 77.4225H173.928V87.8088H172.518ZM177.996 82.5816L180.859 87.8088H179.223L176.405 82.5816H177.996ZM182.753 87.8088V76.1725H189.776V77.4225H184.162V81.3543H189.412V82.6043H184.162V86.5588H189.866V87.8088H182.753Z" fill="#ADADAD"/>
<defs>
<linearGradient id="paint0_linear_31_1211" x1="18.5041" y1="24.6966" x2="18.7286" y2="20.948" gradientUnits="userSpaceOnUse">
<stop stop-color="#FF4060" stop-opacity="0"/>
<stop offset="1" stop-color="white"/>
</linearGradient>
<linearGradient id="paint1_linear_31_1211" x1="9.65254" y1="20.1492" x2="12.5727" y2="17.1236" gradientUnits="userSpaceOnUse">
<stop stop-color="#FF4060" stop-opacity="0"/>
<stop offset="1" stop-color="white"/>
</linearGradient>
<linearGradient id="paint2_linear_31_1211" x1="28.7381" y1="72.1066" x2="162.21" y2="72.1066" gradientUnits="userSpaceOnUse">
<stop stop-color="#F34E3A"/>
<stop offset="1" stop-color="white"/>
</linearGradient>
<linearGradient id="paint3_linear_31_1211" x1="38.1521" y1="19.1417" x2="34.3042" y2="10.053" gradientUnits="userSpaceOnUse">
<stop stop-color="#FF4060" stop-opacity="0"/>
<stop offset="1" stop-color="white"/>
</linearGradient>
</defs>
</svg>
