<svg width="216" height="92" viewBox="0 0 216 92" fill="none" xmlns="http://www.w3.org/2000/svg">
<path d="M36.4767 30.813C36.4767 30.813 13.5586 38.4532 21.0715 63.3693C21.0715 63.3693 20.8049 64.8887 29.515 72.6328C29.515 72.6284 11.6973 45.2146 36.4767 30.813Z" fill="#F34E3A"/>
<path d="M34.4619 37.0726H52.3699V40.5226H38.7536V51.1107H51.3308V54.5131H38.7536V68.9277H34.4619V37.0726Z" fill="black"/>
<path d="M62.7741 37.0726V68.9277H58.4823V37.0726H62.7741Z" fill="black"/>
<path d="M66.4786 40.5702V37.0726H91.0953V40.5702H80.9351V68.9277H76.5936V40.5702H66.4786Z" fill="black"/>
<path d="M94.7908 68.9277V37.0726H99.4756L110.128 53.1884C112.595 56.9241 114.519 60.2789 116.096 63.5384L116.195 63.4908C115.802 59.2357 115.703 55.3615 115.703 50.3964V37.0683H119.746V68.9234H115.405L104.847 52.7599C102.53 49.2147 100.307 45.5742 98.6308 42.1242L98.4817 42.1718C98.7302 46.1889 98.8251 50.0198 98.8251 55.3095V68.9234H94.7908V68.9277Z" fill="black"/>
<path d="M144.467 53.9936H131.542V65.4777H145.944V68.9277H127.25V37.0726H145.208V40.5226H131.542V50.5912H144.467V53.9936Z" fill="black"/>
<path d="M150.932 63.9194C152.856 65.0535 155.666 65.9971 158.625 65.9971C163.017 65.9971 165.583 63.7765 165.583 60.5603C165.583 57.5821 163.807 55.8809 159.317 54.2274C153.891 52.3833 150.534 49.6909 150.534 45.1976C150.534 40.2369 154.826 36.5489 161.286 36.5489C164.688 36.5489 167.155 37.3064 168.637 38.1072L167.453 41.462C166.369 40.8949 164.146 39.9512 161.137 39.9512C156.597 39.9512 154.871 42.5528 154.871 44.7258C154.871 47.704 156.895 49.1671 161.481 50.8683C167.105 52.9461 169.965 55.5476 169.965 60.227C169.965 65.1444 166.165 69.3952 158.323 69.3952C155.115 69.3952 151.614 68.4991 149.839 67.3607L150.932 63.9194Z" fill="black"/>
<path d="M175.255 63.9193C177.179 65.0535 179.989 65.9971 182.949 65.9971C187.34 65.9971 189.906 63.7765 189.906 60.5602C189.906 57.5821 188.13 55.8809 183.64 54.2273C178.214 52.3833 174.857 49.6908 174.857 45.1976C174.857 40.2369 179.149 36.5488 185.609 36.5488C189.011 36.5488 191.478 37.3064 192.96 38.1072L191.776 41.4619C190.692 40.8949 188.469 39.9512 185.46 39.9512C180.92 39.9512 179.194 42.5528 179.194 44.7258C179.194 47.7039 181.218 49.1671 185.804 50.8682C191.428 52.946 194.288 55.5476 194.288 60.2269C194.288 65.1444 190.489 69.3952 182.646 69.3952C179.438 69.3952 175.937 68.4991 174.162 67.3607L175.255 63.9193Z" fill="black"/>
<path d="M47.4004 13.3986C47.2559 12.771 44.1884 8.1782 37.1453 7.72801C31.5796 7.36873 27.7486 11.6671 27.4098 14.5111C27.1432 16.7404 28.9413 20.4588 28.3359 22.9954C28.3359 22.9997 28.2817 23.3287 28.0513 23.7659C28.0332 23.8049 28.0106 23.8438 27.988 23.8785C27.9745 23.9044 27.9564 23.9304 27.9429 23.9521C27.9067 24.0127 27.866 24.0733 27.8254 24.1339C27.7802 24.1988 27.726 24.2681 27.6673 24.333C27.6628 24.3373 27.6628 24.3373 27.6628 24.3416C27.0393 25.0905 25.8557 25.8783 23.6059 25.9086C23.6059 25.9086 25.7834 25.5753 26.7547 24.1945C26.0499 23.3157 24.4823 21.6622 22.0563 20.7055C22.0292 20.6969 22.0066 20.6882 21.9795 20.6752C21.8124 20.6103 21.6407 20.554 21.4645 20.4977C21.329 20.4545 21.1889 20.4112 21.0308 20.3679C20.9134 20.3332 20.7914 20.3029 20.6694 20.2726C20.5519 20.2423 20.43 20.2164 20.308 20.1904C19.2283 19.9696 18.013 19.8874 16.6803 20.0562C15.0811 20.3029 13.3734 21.0129 11.8554 22.6145C11.8554 22.6145 12.899 20.3246 16.1246 19.5324C14.9952 18.5238 12.3569 16.4504 9.8496 16.5586C9.8496 16.5586 13.5586 14.8661 14.566 11.1477C15.578 7.42933 19.3231 5.61127 20.2041 5.87532C21.085 6.1437 22.3048 7.65875 23.5697 7.44664C24.8347 7.23453 24.794 6.10474 24.794 6.10474C24.794 6.10474 26.5921 5.66321 27.3104 5.35588C28.0287 5.04854 27.8706 3.88411 26.9309 2.59848C25.9957 1.31285 25.3587 -0.440285 24.0848 0.100805C22.8063 0.637567 20.8366 1.0488 19.2102 1.09208C17.5838 1.13537 16.861 1.60287 15.2753 2.77163C13.6896 3.94038 9.36621 6.48134 6.45231 9.43353C3.53842 12.39 2.01596 14.035 0.66518 14.8531C-0.685602 15.6712 0.376049 16.4547 0.760051 17.5932C1.13953 18.7316 0.656144 21.7574 2.29154 24.2464C3.43903 25.9952 4.97955 27.5839 5.79725 28.376C5.79725 27.7743 5.97344 27.4453 5.97344 27.4453C5.98247 28.4583 6.84986 29.8824 7.12092 30.3023C7.26549 30.5231 7.42813 30.7568 7.60883 30.9862C8.02446 29.1552 8.97317 28.5665 8.97317 28.5665C8.30004 29.4582 8.14192 30.6572 8.2142 31.8347C8.25034 32.2502 8.37684 33.3324 8.72921 34.5704C8.8783 35.0769 9.0319 35.4924 9.13129 35.7521C9.29844 36.1764 9.49722 36.5962 9.72762 36.9988C10.8209 35.1591 12.3027 34.6483 12.3027 34.6483C10.9835 35.5141 10.2923 36.7261 9.96706 37.9858C9.84508 38.5398 9.67793 39.5831 9.74117 40.8774C9.83604 42.2582 10.1613 43.3837 10.2788 43.756C10.6131 44.7472 11.1236 45.7688 11.9006 46.7601C14.679 50.301 18.7223 59.993 19.2825 61.3435C18.4829 59.3393 11.1642 39.0593 37.954 29.3327C37.954 29.3327 39.7837 31.3369 41.0441 30.259C42.1374 29.324 41.5907 28.6401 42.7247 28.3414C43.1222 28.2375 42.8557 27.5492 42.8557 27.5492C42.8557 27.5492 43.4927 27.5103 43.4159 27.0904C43.3616 26.783 43.3255 25.6489 43.8541 25.6359C44.4459 25.6229 45.0558 25.532 45.1326 25.216C45.2139 24.8784 44.6582 22.7054 44.3826 21.6708C44.2923 21.3288 44.3826 20.9652 44.6266 20.6969L45.6476 19.5801C45.7786 19.4372 45.8554 19.2554 45.869 19.0649L46.0948 15.8227C46.0994 15.827 47.545 14.0263 47.4004 13.3986Z" fill="#F34E3A"/>
<path opacity="0.4" d="M11.7831 23.4585C11.7831 23.4585 14.9274 20.147 19.3954 20.9175C23.8634 21.688 25.3316 24.2636 25.3316 24.2636C25.3316 24.2636 18.6997 29.8131 11.7831 23.4585Z" fill="url(#paint0_linear_20_1330)"/>
<path opacity="0.4" d="M11.3178 22.1686C11.3178 22.1686 12.0904 19.883 14.7874 19.29C14.7874 19.29 12.0271 16.8356 8.66598 17.1516C8.66598 17.1473 4.95245 19.2467 11.3178 22.1686Z" fill="url(#paint1_linear_20_1330)"/>
<path d="M162.212 71.5854H28.738L29.515 72.628H162.212V71.5854Z" fill="url(#paint2_linear_20_1330)"/>
<path opacity="0.4" d="M29.6324 22.1685C29.6324 22.1685 29.1987 18.9306 28.6702 16.3463C28.1416 13.7621 30.545 9.99612 35.1304 9.04813C39.7159 8.10014 44.7214 11.0783 45.1551 12.879C45.5843 14.6798 33.7751 28.3585 29.6324 22.1685Z" fill="url(#paint3_linear_20_1330)"/>
<path d="M31.4091 76.1722H33.0227L36.25 81.604H36.3864L39.6136 76.1722H41.2273L37.0227 83.0131V87.8086H35.6136V83.0131L31.4091 76.1722ZM52.321 81.9904C52.321 83.2177 52.0994 84.2783 51.6562 85.1722C51.2131 86.0662 50.6051 86.7556 49.8324 87.2404C49.0597 87.7253 48.1771 87.9677 47.1847 87.9677C46.1922 87.9677 45.3097 87.7253 44.5369 87.2404C43.7642 86.7556 43.1563 86.0662 42.7131 85.1722C42.2699 84.2783 42.0483 83.2177 42.0483 81.9904C42.0483 80.7631 42.2699 79.7025 42.7131 78.8086C43.1563 77.9147 43.7642 77.2253 44.5369 76.7404C45.3097 76.2556 46.1922 76.0131 47.1847 76.0131C48.1771 76.0131 49.0597 76.2556 49.8324 76.7404C50.6051 77.2253 51.2131 77.9147 51.6562 78.8086C52.0994 79.7025 52.321 80.7631 52.321 81.9904ZM50.9574 81.9904C50.9574 80.9828 50.7888 80.1325 50.4517 79.4393C50.1184 78.7461 49.6657 78.2215 49.0938 77.8654C48.5256 77.5094 47.8892 77.3313 47.1847 77.3313C46.4801 77.3313 45.8419 77.5094 45.2699 77.8654C44.7017 78.2215 44.2491 78.7461 43.9119 79.4393C43.5786 80.1325 43.4119 80.9828 43.4119 81.9904C43.4119 82.998 43.5786 83.8484 43.9119 84.5415C44.2491 85.2347 44.7017 85.7594 45.2699 86.1154C45.8419 86.4715 46.4801 86.6495 47.1847 86.6495C47.8892 86.6495 48.5256 86.4715 49.0938 86.1154C49.6657 85.7594 50.1184 85.2347 50.4517 84.5415C50.7888 83.8484 50.9574 82.998 50.9574 81.9904ZM62.3267 76.1722H63.7358V83.8768C63.7358 84.6722 63.5483 85.3825 63.1733 86.0075C62.8021 86.6287 62.2775 87.1192 61.5994 87.479C60.9214 87.8351 60.1259 88.0131 59.2131 88.0131C58.3002 88.0131 57.5047 87.8351 56.8267 87.479C56.1487 87.1192 55.6222 86.6287 55.2472 86.0075C54.8759 85.3825 54.6903 84.6722 54.6903 83.8768V76.1722H56.0994V83.7631C56.0994 84.3313 56.2244 84.837 56.4744 85.2802C56.7244 85.7196 57.0805 86.0662 57.5426 86.32C58.0085 86.57 58.5653 86.695 59.2131 86.695C59.8608 86.695 60.4176 86.57 60.8835 86.32C61.3494 86.0662 61.7055 85.7196 61.9517 85.2802C62.2017 84.837 62.3267 84.3313 62.3267 83.7631V76.1722ZM66.5497 87.8086V76.1722H70.4815C71.3906 76.1722 72.1368 76.3275 72.7202 76.6381C73.3035 76.945 73.7353 77.3673 74.0156 77.9052C74.2959 78.4431 74.4361 79.0548 74.4361 79.7404C74.4361 80.426 74.2959 81.034 74.0156 81.5643C73.7353 82.0946 73.3054 82.5112 72.7259 82.8143C72.1463 83.1135 71.4058 83.2631 70.5043 83.2631H67.3224V81.9904H70.4588C71.08 81.9904 71.58 81.8995 71.9588 81.7177C72.3414 81.5359 72.6179 81.2783 72.7884 80.945C72.9626 80.6078 73.0497 80.2063 73.0497 79.7404C73.0497 79.2745 72.9626 78.8673 72.7884 78.5188C72.6141 78.1703 72.3357 77.9014 71.9531 77.712C71.5705 77.5188 71.0649 77.4222 70.4361 77.4222H67.9588V87.8086H66.5497ZM72.027 82.5813L74.8906 87.8086H73.2543L70.4361 82.5813H72.027ZM87.6477 79.0813C87.5795 78.5056 87.303 78.0586 86.8182 77.7404C86.3333 77.4222 85.7386 77.2631 85.0341 77.2631C84.5189 77.2631 84.0682 77.3465 83.6818 77.5131C83.2992 77.6798 83 77.909 82.7841 78.2006C82.572 78.4923 82.4659 78.8237 82.4659 79.195C82.4659 79.5056 82.5398 79.7726 82.6875 79.9961C82.839 80.2158 83.0322 80.3995 83.267 80.5472C83.5019 80.6912 83.7481 80.8105 84.0057 80.9052C84.2633 80.9961 84.5 81.07 84.7159 81.1268L85.8977 81.445C86.2008 81.5245 86.5379 81.6344 86.9091 81.7745C87.2841 81.9147 87.642 82.1059 87.983 82.3484C88.3277 82.587 88.6117 82.8938 88.8352 83.2688C89.0587 83.6438 89.1705 84.104 89.1705 84.6495C89.1705 85.2783 89.0057 85.8465 88.6761 86.354C88.3504 86.8616 87.8731 87.265 87.2443 87.5643C86.6193 87.8635 85.8598 88.0131 84.9659 88.0131C84.1326 88.0131 83.411 87.8787 82.8011 87.6097C82.1951 87.3408 81.7178 86.9658 81.3693 86.4847C81.0246 86.0037 80.8295 85.445 80.7841 84.8086H82.2386C82.2765 85.248 82.4242 85.6116 82.6818 85.8995C82.9432 86.1836 83.2727 86.3957 83.6705 86.5359C84.072 86.6722 84.5038 86.7404 84.9659 86.7404C85.5038 86.7404 85.9867 86.6533 86.4148 86.479C86.8428 86.301 87.1818 86.0548 87.4318 85.7404C87.6818 85.4222 87.8068 85.051 87.8068 84.6268C87.8068 84.2404 87.6989 83.926 87.483 83.6836C87.267 83.4412 86.983 83.2442 86.6307 83.0927C86.2784 82.9412 85.8977 82.8086 85.4886 82.695L84.0568 82.2859C83.1477 82.0245 82.428 81.6514 81.8977 81.1665C81.3674 80.6817 81.1023 80.0472 81.1023 79.2631C81.1023 78.6116 81.2784 78.0434 81.6307 77.5586C81.9867 77.07 82.464 76.6912 83.0625 76.4222C83.6648 76.1495 84.3371 76.0131 85.0795 76.0131C85.8295 76.0131 86.4962 76.1476 87.0795 76.4165C87.6629 76.6817 88.125 77.0453 88.4659 77.5075C88.8106 77.9696 88.9924 78.4942 89.0114 79.0813H87.6477ZM91.4872 87.8086V76.1722H92.8963V86.5586H98.3054V87.8086H91.4872ZM109.852 81.9904C109.852 83.2177 109.631 84.2783 109.188 85.1722C108.744 86.0662 108.136 86.7556 107.364 87.2404C106.591 87.7253 105.708 87.9677 104.716 87.9677C103.723 87.9677 102.841 87.7253 102.068 87.2404C101.295 86.7556 100.688 86.0662 100.244 85.1722C99.8011 84.2783 99.5795 83.2177 99.5795 81.9904C99.5795 80.7631 99.8011 79.7025 100.244 78.8086C100.688 77.9147 101.295 77.2253 102.068 76.7404C102.841 76.2556 103.723 76.0131 104.716 76.0131C105.708 76.0131 106.591 76.2556 107.364 76.7404C108.136 77.2253 108.744 77.9147 109.188 78.8086C109.631 79.7025 109.852 80.7631 109.852 81.9904ZM108.489 81.9904C108.489 80.9828 108.32 80.1325 107.983 79.4393C107.65 78.7461 107.197 78.2215 106.625 77.8654C106.057 77.5094 105.42 77.3313 104.716 77.3313C104.011 77.3313 103.373 77.5094 102.801 77.8654C102.233 78.2215 101.78 78.7461 101.443 79.4393C101.11 80.1325 100.943 80.9828 100.943 81.9904C100.943 82.998 101.11 83.8484 101.443 84.5415C101.78 85.2347 102.233 85.7594 102.801 86.1154C103.373 86.4715 104.011 86.6495 104.716 86.6495C105.42 86.6495 106.057 86.4715 106.625 86.1154C107.197 85.7594 107.65 85.2347 107.983 84.5415C108.32 83.8484 108.489 82.998 108.489 81.9904ZM120.176 79.8086C120.051 79.426 119.886 79.0832 119.682 78.7802C119.481 78.4734 119.241 78.212 118.96 77.9961C118.684 77.7802 118.369 77.6154 118.017 77.5018C117.665 77.3881 117.278 77.3313 116.858 77.3313C116.169 77.3313 115.542 77.5094 114.977 77.8654C114.413 78.2215 113.964 78.7461 113.631 79.4393C113.297 80.1325 113.131 80.9828 113.131 81.9904C113.131 82.998 113.299 83.8484 113.636 84.5415C113.973 85.2347 114.43 85.7594 115.006 86.1154C115.581 86.4715 116.229 86.6495 116.949 86.6495C117.616 86.6495 118.203 86.5075 118.71 86.2234C119.222 85.9355 119.619 85.5302 119.903 85.0075C120.191 84.4809 120.335 83.8616 120.335 83.1495L120.767 83.2404H117.267V81.9904H121.699V83.2404C121.699 84.1987 121.494 85.0321 121.085 85.7404C120.68 86.4487 120.119 86.998 119.403 87.3881C118.691 87.7745 117.873 87.9677 116.949 87.9677C115.919 87.9677 115.013 87.7253 114.233 87.2404C113.456 86.7556 112.85 86.0662 112.415 85.1722C111.983 84.2783 111.767 83.2177 111.767 81.9904C111.767 81.07 111.89 80.2423 112.136 79.5075C112.386 78.7688 112.739 78.14 113.193 77.6211C113.648 77.1022 114.186 76.7044 114.807 76.4279C115.428 76.1514 116.112 76.0131 116.858 76.0131C117.472 76.0131 118.044 76.1059 118.574 76.2915C119.108 76.4734 119.583 76.7328 120 77.07C120.42 77.4033 120.771 77.8029 121.051 78.2688C121.331 78.7309 121.525 79.2442 121.631 79.8086H120.176ZM124.23 87.8086H122.753L127.026 76.1722H128.48L132.753 87.8086H131.276L127.798 78.0131H127.707L124.23 87.8086ZM124.776 83.2631H130.73V84.5131H124.776V83.2631ZM143.793 76.1722V87.8086H142.429L136.088 78.6722H135.974V87.8086H134.565V76.1722H135.929L142.293 85.3313H142.406V76.1722H143.793ZM151.112 87.8086V76.1722H152.521V81.354H158.726V76.1722H160.135V87.8086H158.726V82.604H152.521V87.8086H151.112ZM162.956 87.8086V76.1722H169.979V77.4222H164.365V81.354H169.615V82.604H164.365V86.5586H170.07V87.8086H162.956ZM172.518 87.8086V76.1722H176.45C177.359 76.1722 178.106 76.3275 178.689 76.6381C179.272 76.945 179.704 77.3673 179.984 77.9052C180.265 78.4431 180.405 79.0548 180.405 79.7404C180.405 80.426 180.265 81.034 179.984 81.5643C179.704 82.0946 179.274 82.5112 178.695 82.8143C178.115 83.1135 177.375 83.2631 176.473 83.2631H173.291V81.9904H176.428C177.049 81.9904 177.549 81.8995 177.928 81.7177C178.31 81.5359 178.587 81.2783 178.757 80.945C178.931 80.6078 179.018 80.2063 179.018 79.7404C179.018 79.2745 178.931 78.8673 178.757 78.5188C178.583 78.1703 178.304 77.9014 177.922 77.712C177.539 77.5188 177.034 77.4222 176.405 77.4222H173.928V87.8086H172.518ZM177.996 82.5813L180.859 87.8086H179.223L176.405 82.5813H177.996ZM182.753 87.8086V76.1722H189.776V77.4222H184.162V81.354H189.412V82.604H184.162V86.5586H189.866V87.8086H182.753Z" fill="#ADADAD"/>
<defs>
<linearGradient id="paint0_linear_20_1330" x1="18.5041" y1="24.6965" x2="18.7286" y2="20.9479" gradientUnits="userSpaceOnUse">
<stop stop-color="#FF4060" stop-opacity="0"/>
<stop offset="1" stop-color="white"/>
</linearGradient>
<linearGradient id="paint1_linear_20_1330" x1="9.65254" y1="20.1492" x2="12.5727" y2="17.1236" gradientUnits="userSpaceOnUse">
<stop stop-color="#FF4060" stop-opacity="0"/>
<stop offset="1" stop-color="white"/>
</linearGradient>
<linearGradient id="paint2_linear_20_1330" x1="28.7381" y1="72.1068" x2="162.21" y2="72.1068" gradientUnits="userSpaceOnUse">
<stop stop-color="#F34E3A"/>
<stop offset="1" stop-color="white"/>
</linearGradient>
<linearGradient id="paint3_linear_20_1330" x1="38.1521" y1="19.1416" x2="34.3042" y2="10.0529" gradientUnits="userSpaceOnUse">
<stop stop-color="#FF4060" stop-opacity="0"/>
<stop offset="1" stop-color="white"/>
</linearGradient>
</defs>
</svg>
