<svg width="41" height="41" viewBox="0 0 41 41" fill="none" xmlns="http://www.w3.org/2000/svg">
<path d="M14.582 21.2527C11.3309 21.2527 8.70431 23.8793 8.75236 27.0984C8.78439 29.1645 9.9215 30.9582 11.5951 31.9592C11.0266 31.0863 10.6902 30.0533 10.6742 28.9402C10.6262 25.7211 13.2527 23.0945 16.5039 23.0945C17.1445 23.0945 17.7611 23.1986 18.3377 23.3828V16.9365C17.7371 16.8484 17.1205 16.8004 16.5039 16.8004H16.4158V21.541C15.8393 21.3568 15.2227 21.2527 14.582 21.2527ZM28.6358 1.92188H26.9221C27.4026 4.33223 28.7559 6.43027 30.6457 7.85566C29.4045 6.21406 28.6518 4.16406 28.6358 1.92188Z" fill="#F00044"/>
<path d="M38.4374 11.7313C37.8048 11.7313 37.1962 11.6673 36.5956 11.5552V16.1757C34.4175 16.1757 32.3034 15.7513 30.3175 14.9024C29.0362 14.3579 27.8431 13.6612 26.746 12.8204L26.778 27.0663C26.762 30.2694 25.4968 33.2724 23.2065 35.5386C21.3407 37.3804 18.9784 38.5575 16.4159 38.9339C15.8153 39.022 15.1987 39.07 14.5821 39.07C11.8435 39.07 9.23291 38.1812 7.11084 36.5395C7.35107 36.8278 7.60732 37.1081 7.8876 37.3804C10.1938 39.6546 13.2528 40.9118 16.512 40.9118C17.1286 40.9118 17.7452 40.8638 18.3458 40.7757C20.9083 40.3993 23.2706 39.2222 25.1364 37.3804C27.4267 35.1142 28.6919 32.1112 28.7079 28.9081L28.5878 14.6622C29.6769 15.503 30.87 16.2077 32.1593 16.7442C34.1532 17.5851 36.2673 18.0175 38.4374 18.0175" fill="#F00044"/>
<path d="M7.86361 20.3477C10.1458 18.0814 13.1808 16.8242 16.416 16.8002V15.0945C15.8154 15.0064 15.1988 14.9584 14.5822 14.9584C11.315 14.9584 8.24799 16.2156 5.94174 18.5059C3.67553 20.7561 2.37826 23.8311 2.38627 27.0262C2.38627 30.2453 3.65951 33.2643 5.95775 35.5465C6.32611 35.9068 6.70248 36.2432 7.10287 36.5475C5.2931 34.3934 4.30814 31.7027 4.30013 28.868C4.30814 25.6729 5.5974 22.5979 7.86361 20.3477ZM36.5956 11.5551V9.84141H36.5796C34.3535 9.84141 32.3035 9.10469 30.6538 7.85547C32.0872 9.74531 34.1853 11.0906 36.5956 11.5551Z" fill="#08FFF9"/>
<path d="M16.1757 34.6098C16.9364 34.6498 17.6651 34.5457 18.3378 34.3295C20.6601 33.5688 22.3337 31.4066 22.3337 28.8602L22.3417 19.3309V1.92188H26.9222C26.8021 1.32129 26.738 0.712695 26.73 0.0800781H20.4198V17.4811L20.4118 27.0104C20.4118 29.5568 18.7382 31.7189 16.4159 32.4797C15.7433 32.7039 15.0146 32.808 14.2538 32.76C13.2849 32.7039 12.38 32.4156 11.5952 31.9512C12.5802 33.4727 14.2618 34.5057 16.1757 34.6098Z" fill="#08FFF9"/>
<path d="M16.416 38.934C18.9785 38.5576 21.3408 37.3805 23.2066 35.5387C25.4968 33.2725 26.7621 30.2695 26.7781 27.0664L26.746 12.8205C27.8351 13.6613 29.0283 14.366 30.3175 14.9025C32.3115 15.7434 34.4255 16.1758 36.5956 16.1758V11.5553C34.1853 11.0908 32.0872 9.74551 30.6538 7.85566C28.764 6.43027 27.4027 4.33223 26.9302 1.92188H22.3417V19.3228L22.3337 28.8521C22.3337 31.3986 20.6601 33.5607 18.3378 34.3215C17.6652 34.5457 16.9365 34.6498 16.1757 34.6018C14.2538 34.4977 12.5802 33.4646 11.5953 31.9512C9.92162 30.9582 8.78451 29.1564 8.75248 27.0904C8.70443 23.8713 11.331 21.2447 14.5822 21.2447C15.2228 21.2447 15.8394 21.3488 16.416 21.533V16.7924C13.1808 16.8164 10.1458 18.0736 7.86361 20.3398C5.5974 22.59 4.30013 25.665 4.30814 28.8521C4.30814 31.6869 5.2931 34.3775 7.11088 36.5316C9.24096 38.1732 11.8435 39.0621 14.5822 39.0621C15.1988 39.0701 15.8154 39.0221 16.416 38.934Z" fill="black"/>
</svg>
